<svg width="45" height="30" viewBox="0 0 45 30" fill="none" xmlns="http://www.w3.org/2000/svg">
<g clip-path="url(#clip0_2704_5456)">
<path fill-rule="evenodd" clip-rule="evenodd" d="M3.56966 0H40.9709H41.4303H41.8218C42.1051 0.00298703 42.3878 0.0285405 42.6674 0.0764367C42.9512 0.128258 43.226 0.223665 43.483 0.359536C43.7351 0.495292 43.9661 0.669955 44.1681 0.877607C44.5721 1.29856 44.8385 1.8414 44.9293 2.42899C44.9763 2.72095 45.0018 3.01624 45.0054 3.31226V3.71709V26.2942V26.6991C45.0018 26.9941 44.9763 27.2885 44.9293 27.5795C44.8385 28.1671 44.5721 28.7099 44.1681 29.1309C43.9675 29.3403 43.7362 29.5151 43.483 29.649C43.226 29.7847 42.9512 29.8802 42.6674 29.9321C42.3876 29.9786 42.1051 30.0041 41.8218 30.0085H41.4303H3.58869H3.19992C2.91578 30.0042 2.6323 29.9787 2.35168 29.9321C2.06787 29.8802 1.79302 29.7847 1.53607 29.649C1.28278 29.5151 1.05153 29.3403 0.850955 29.1309C0.651539 28.9205 0.483803 28.68 0.353432 28.4175C0.222949 28.1499 0.131327 27.8637 0.0815611 27.5682C0.0327036 27.2773 0.00543587 26.983 0 26.6877V26.2829V3.71709V3.31226C0.00329271 3.0201 0.0278312 2.72861 0.073405 2.44031C0.123171 2.14477 0.214793 1.85855 0.345275 1.59102C0.603056 1.0655 1.01297 0.637673 1.51704 0.368029C1.77396 0.232157 2.04882 0.136751 2.33265 0.0849297C2.6127 0.0326448 2.89639 0.00424064 3.18088 0H3.56966ZM41.4249 0.999339H40.9709V1.00783H3.58054H3.2108C2.9758 1.00971 2.74129 1.03054 2.50937 1.07011C2.32041 1.10169 2.1371 1.16278 1.96563 1.2513C1.80181 1.33741 1.65221 1.45018 1.52249 1.58535C1.3932 1.71944 1.28413 1.87311 1.19896 2.04114C1.11328 2.21941 1.05459 2.4104 1.02496 2.60734C0.987559 2.84896 0.966663 3.09304 0.962432 3.33774V3.72275V26.2801V26.6651C0.966951 26.9087 0.986931 27.1518 1.02224 27.3927C1.05343 27.5896 1.11301 27.7805 1.19896 27.9589C1.28171 28.1286 1.39001 28.2834 1.51977 28.4175C1.64833 28.5528 1.79706 28.6656 1.9602 28.7515C2.13125 28.8417 2.31466 28.9038 2.50394 28.9356C2.73593 28.9744 2.97039 28.9953 3.20536 28.9978H3.57239H41.4195H41.7947C42.0287 28.9949 42.2622 28.9741 42.4934 28.9356C42.6828 28.9044 42.8663 28.8423 43.0371 28.7515C43.3658 28.5781 43.6333 28.3006 43.8011 27.9589C43.8874 27.7809 43.9461 27.5898 43.9751 27.3927C44.0132 27.1502 44.0332 26.9051 44.0349 26.6594V26.2773V25.8016V4.1927V3.71992V3.33491C44.0327 3.09033 44.0136 2.84623 43.9778 2.60451C43.9466 2.40759 43.887 2.2167 43.8011 2.03831C43.7177 1.86816 43.6094 1.71249 43.4802 1.57686C43.3505 1.44301 43.202 1.33039 43.0398 1.2428C42.8678 1.15518 42.6847 1.09323 42.4961 1.05879C42.2639 1.02147 42.0295 1.0016 41.7947 0.999339H41.4249Z" fill="black"/>
<path d="M12.2859 10.0898C12.7028 9.57025 12.9094 8.90232 12.8623 8.22705C12.2224 8.28972 11.6308 8.60838 11.212 9.11598C11.0038 9.35869 10.8442 9.64217 10.7424 9.94986C10.6407 10.2576 10.5988 10.5833 10.6193 10.908C10.9387 10.9137 11.2551 10.8428 11.5441 10.701C11.8331 10.5591 12.0869 10.35 12.2859 10.0898Z" fill="black"/>
<path d="M12.8568 11.0409C11.9352 10.9843 11.1549 11.5844 10.7145 11.5844C10.274 11.5844 9.6025 11.0692 8.87661 11.0833C8.40373 11.0965 7.94232 11.2379 7.538 11.4936C7.13367 11.7493 6.80041 12.1104 6.57115 12.5413C5.58154 14.3163 6.29928 16.9463 7.26985 18.3901C7.73747 19.1035 8.30024 19.8906 9.03973 19.8622C9.77922 19.8339 10.0157 19.3923 10.8667 19.3923C11.7177 19.3923 11.9542 19.8622 12.7045 19.8481C13.4549 19.8339 13.9524 19.1347 14.42 18.4326C14.7503 17.9252 15.0094 17.3714 15.1894 16.7878C14.7472 16.5881 14.3701 16.2589 14.1042 15.8403C13.8383 15.4216 13.6949 14.9315 13.6914 14.4296C13.6971 13.9838 13.8109 13.5468 14.0225 13.1592C14.234 12.7716 14.5363 12.446 14.9013 12.2129C14.6698 11.8671 14.365 11.5815 14.0105 11.3783C13.6559 11.175 13.2611 11.0596 12.8568 11.0409Z" fill="black"/>
<path d="M20.8606 9.04199C22.8588 9.04199 24.2508 10.4773 24.2508 12.5666C24.2508 14.6558 22.8371 16.1053 20.8116 16.1053H18.5986V19.7686H17V9.04199H20.8606ZM18.5986 14.721H20.4337C21.8257 14.721 22.6087 13.9396 22.6087 12.5864C22.6087 11.2332 21.8175 10.4631 20.4337 10.4631H18.5986V14.721Z" fill="black"/>
<path d="M24.6694 17.5523C24.6694 16.1849 25.6754 15.3441 27.4615 15.2394L29.5169 15.1148V14.5061C29.5169 13.637 28.9514 13.1161 28.0107 13.1161C27.1163 13.1161 26.5617 13.5634 26.4257 14.2485H24.9685C25.0555 12.833 26.2109 11.7969 28.0678 11.7969C29.9247 11.7969 31.0584 12.799 31.0584 14.3674V19.7463H29.5821V18.4837H29.5468C29.3092 18.9187 28.964 19.2795 28.547 19.5284C28.1301 19.7774 27.6567 19.9054 27.1761 19.8992C25.6971 19.902 24.6694 18.9508 24.6694 17.5523ZM29.5169 16.8445V16.2245L27.6682 16.3434C26.7465 16.4086 26.2245 16.8332 26.2245 17.5013C26.2245 18.1694 26.7683 18.6337 27.5839 18.6337C28.6741 18.6309 29.5169 17.858 29.5169 16.8389V16.8445Z" fill="black"/>
<path d="M32.4449 22.6481V21.3459C32.6104 21.3722 32.7778 21.3826 32.9452 21.377C33.6575 21.377 34.0326 21.0656 34.28 20.2616C34.28 20.2616 34.416 19.786 34.416 19.7775L31.6973 11.9526H33.3666L35.2696 18.3139H35.2968L37.1999 11.9526H38.8311L36.0146 20.1767C35.373 22.0734 34.6307 22.6821 33.0729 22.6821C32.8632 22.6825 32.6535 22.6711 32.4449 22.6481Z" fill="black"/>
</g>
<defs>
<clipPath id="clip0_2704_5456">
<rect width="45" height="30" fill="white"/>
</clipPath>
</defs>
</svg>
