<svg width="131" height="48" viewBox="0 0 131 48" fill="none" xmlns="http://www.w3.org/2000/svg">
<path d="M10.3811 40.9484H8.08601V47.8666H6.53752V40.9484H4.07654V39.7197H10.7682L10.3811 40.9484Z" fill="white"/>
<path d="M15.441 47.867V44.448C15.441 43.7802 15.3304 43.1659 14.5285 43.1659C14.0032 43.1659 13.4778 43.4597 13.063 43.7802V47.8403H11.5145V39.0791H13.063V42.605C13.616 42.1509 14.2797 41.8303 15.0816 41.8303C16.0217 41.8303 17.0172 42.2577 17.0172 43.9939V47.8136H15.441" fill="white"/>
<path d="M19.6441 45.3289C19.6718 46.1837 20.4184 46.798 21.3585 46.798C21.9392 46.798 22.4093 46.6645 22.9347 46.3974L23.2941 47.359C22.6028 47.813 21.8009 48 21.082 48C18.9805 48 18.068 46.5042 18.068 44.955C18.068 43.2989 19.0911 41.9099 20.8331 41.9099C22.4646 41.9099 23.543 43.1119 23.543 44.9283C23.543 45.0351 23.543 45.1687 23.543 45.3556H19.6441V45.3289ZM20.7778 42.9784C20.0313 42.9784 19.5888 43.6194 19.5888 44.2605H21.9392C21.9116 43.6461 21.5521 42.9784 20.7778 42.9784Z" fill="white"/>
<path d="M34.6595 40.9484H32.3367V47.8666H30.7883V40.9484H28.3273V39.7197H35.0189L34.6595 40.9484Z" fill="white"/>
<path d="M38.3644 43.379C38.1155 43.2187 37.839 43.192 37.6455 43.192C37.2583 43.192 36.9265 43.3255 36.4564 43.6995V47.8397H34.908V41.99H36.2076L36.3735 42.6044C36.9818 42.0701 37.4519 41.8564 38.0326 41.8564C38.3367 41.8564 38.6686 41.9366 38.9174 42.0968L38.3644 43.379Z" fill="white"/>
<path d="M43.314 47.8671L43.0651 47.3595C42.678 47.7068 42.125 48.0006 41.3231 48.0006C40.217 48.0006 39.3322 47.2794 39.3322 46.1308C39.3322 44.9288 40.3276 44.2611 41.8761 44.2077L42.9545 44.1809C42.9545 44.1275 42.9545 44.0741 42.9545 44.0207C42.9545 43.2995 42.4291 43.0324 41.7655 43.0324C41.1295 43.0324 40.6318 43.246 40.2447 43.4597L39.7469 42.5249C40.5488 42.0173 41.2954 41.8838 42.125 41.8838C43.6181 41.8838 44.5306 42.4714 44.5306 44.0207V46.3445C44.5306 47.1993 44.5583 47.6267 44.6412 47.8938H43.314V47.8671ZM42.9268 45.1692L42.042 45.196C41.2125 45.2227 40.8253 45.4898 40.8253 45.9973C40.8253 46.4781 41.1848 46.7986 41.8208 46.7986C42.3462 46.7986 42.7056 46.6116 42.8992 46.4247V45.1692H42.9268Z" fill="white"/>
<path d="M49.0101 47.8933H47.904L45.4154 42.0168H46.9639L48.4571 45.9968H48.4847L50.0332 42.0168H51.554L49.0101 47.8933Z" fill="white"/>
<path d="M53.4069 45.3289C53.4346 46.1837 54.1812 46.798 55.1213 46.798C55.702 46.798 56.1721 46.6645 56.6975 46.3974L57.0569 47.359C56.3657 47.813 55.5638 48 54.8448 48C52.7433 48 51.8308 46.5042 51.8308 44.955C51.8308 43.2989 52.8539 41.9099 54.596 41.9099C56.2274 41.9099 57.3058 43.1119 57.3058 44.9283C57.3058 45.0351 57.3058 45.1687 57.3058 45.3556H53.4069V45.3289ZM54.5683 42.9784C53.8217 42.9784 53.3793 43.6194 53.3793 44.2605H55.7297C55.702 43.6461 55.3426 42.9784 54.5683 42.9784Z" fill="white"/>
<path d="M59.9044 47.9733C58.8813 47.9733 58.5219 47.4123 58.5219 46.6912V39.1052H60.0703V46.0501C60.0703 46.4775 60.1533 46.6644 60.4851 46.6644C60.5957 46.6644 60.7063 46.6644 60.9275 46.611L61.1211 47.7062C60.651 47.9199 60.2362 47.9733 59.9044 47.9733Z" fill="white"/>
<path d="M72.2376 47.8664L71.408 45.8364H68.394L67.6198 47.8664H66.0713L69.3618 39.6929H70.4955L73.8967 47.8664H72.2376ZM70.2467 42.7379C70.0808 42.3373 69.9978 41.99 69.9148 41.7229C69.8595 42.0167 69.7489 42.3373 69.6107 42.7112L68.8917 44.6077H70.9379L70.2467 42.7379Z" fill="white"/>
<path d="M76.7174 47.9733C75.722 47.9733 74.9754 47.7329 74.4777 47.439L74.9754 46.3439C75.4178 46.6377 75.9985 46.8514 76.6068 46.8514C77.2428 46.8514 77.6576 46.6377 77.6576 46.237C77.6576 45.1953 74.8648 45.5693 74.8648 43.5927C74.8648 42.5776 75.6943 41.8564 77.1599 41.8564C77.8235 41.8564 78.4318 41.9633 78.9296 42.1503V43.379C78.4318 43.192 77.8788 43.005 77.2152 43.005C76.6898 43.005 76.358 43.1653 76.358 43.5125C76.358 44.4474 79.2061 44.1269 79.2061 46.1569C79.1784 47.4658 78.0447 47.9733 76.7174 47.9733Z" fill="white"/>
<path d="M82.3573 47.9733C81.3619 47.9733 80.6153 47.7329 80.1176 47.439L80.6153 46.3439C81.0577 46.6377 81.6384 46.8514 82.2467 46.8514C82.8827 46.8514 83.2975 46.6377 83.2975 46.237C83.2975 45.1953 80.5047 45.5693 80.5047 43.5927C80.5047 42.5776 81.3342 41.8564 82.7998 41.8564C83.4634 41.8564 84.0717 41.9633 84.5694 42.1503V43.379C84.0441 43.192 83.5187 43.005 82.8551 43.005C82.3297 43.005 81.9979 43.1653 81.9979 43.5125C81.9979 44.4474 84.846 44.1269 84.846 46.1569C84.8183 47.4658 83.6569 47.9733 82.3573 47.9733Z" fill="white"/>
<path d="M95.8521 47.9733C93.8888 47.9733 92.8657 46.611 92.8657 44.9549C92.8657 43.1653 94.193 41.8564 95.9903 41.8564C96.8199 41.8564 97.3729 42.0434 97.7324 42.2571L97.7047 43.4591C97.29 43.1386 96.8199 42.9783 96.1839 42.9783C95.1608 42.9783 94.4142 43.7796 94.4142 44.8481C94.4142 45.8364 94.9672 46.7446 96.1839 46.7446C96.7646 46.7446 97.207 46.5843 97.6218 46.3439L98.0089 47.3322C97.5112 47.6794 96.6816 47.9733 95.8521 47.9733Z" fill="white"/>
<path d="M100.083 41.1087C99.5572 41.1087 99.1425 40.7081 99.1425 40.2006C99.1425 39.7198 99.5572 39.3191 100.083 39.3191C100.608 39.3191 101.05 39.7198 101.05 40.2006C101.05 40.7081 100.636 41.1087 100.083 41.1087ZM100.857 47.8666H99.3084V42.0169H100.857V47.8666Z" fill="white"/>
<path d="M106.221 47.8671L105.973 47.3595C105.585 47.7068 105.032 48.0006 104.231 48.0006C103.124 48.0006 102.24 47.2794 102.24 46.1308C102.24 44.9288 103.235 44.2611 104.784 44.2077L105.862 44.1809C105.862 44.1275 105.862 44.0741 105.862 44.0207C105.862 43.2995 105.337 43.0324 104.673 43.0324C104.037 43.0324 103.539 43.246 103.152 43.4597L102.654 42.5249C103.456 42.0173 104.203 41.8838 105.032 41.8838C106.526 41.8838 107.438 42.4714 107.438 44.0207V46.3445C107.438 47.1993 107.466 47.6267 107.549 47.8938H106.221V47.8671ZM105.834 45.1692L104.977 45.196C104.148 45.2227 103.76 45.4898 103.76 45.9973C103.76 46.4781 104.12 46.7986 104.756 46.7986C105.281 46.7986 105.641 46.6116 105.834 46.4247V45.1692Z" fill="white"/>
<path d="M111.143 47.9738C109.954 47.9738 109.539 47.3862 109.539 46.6116V43.1124H108.461V41.9906H109.539V40.655L111.087 40.2009V41.9906H112.968L112.525 43.1124H111.087V46.1041C111.087 46.5581 111.281 46.7718 111.668 46.7718C112.055 46.7718 112.442 46.6116 112.691 46.5047L113.106 47.4663C112.525 47.8403 111.751 47.9738 111.143 47.9738Z" fill="white"/>
<path d="M115.153 41.1087C114.627 41.1087 114.212 40.7081 114.212 40.2006C114.212 39.7198 114.627 39.3191 115.153 39.3191C115.678 39.3191 116.12 39.7198 116.12 40.2006C116.12 40.7081 115.678 41.1087 115.153 41.1087ZM115.927 47.8666H114.378V42.0169H115.927V47.8666Z" fill="white"/>
<path d="M122.397 47.1452C121.872 47.6795 121.125 47.9733 120.212 47.9733C119.355 47.9733 118.664 47.7062 118.139 47.2521C117.53 46.7179 117.198 45.9165 117.198 44.9549C117.198 44.0468 117.53 43.2454 118.083 42.6845C118.609 42.177 119.355 41.8564 120.24 41.8564C121.18 41.8564 121.927 42.177 122.48 42.6845C123.005 43.2187 123.282 43.9933 123.282 44.8748C123.254 45.8097 122.95 46.5843 122.397 47.1452ZM120.185 43.0584C119.217 43.0584 118.747 43.8598 118.747 44.9282C118.747 46.0768 119.3 46.8247 120.24 46.8247C121.208 46.8247 121.678 46.0234 121.678 44.9282C121.678 43.8063 121.125 43.0584 120.185 43.0584Z" fill="white"/>
<path d="M91.0684 47.1452C90.543 47.6795 89.7964 47.9733 88.8839 47.9733C88.0267 47.9733 87.3078 47.7062 86.81 47.2521C86.2017 46.7179 85.8699 45.9165 85.8699 44.9549C85.8699 44.0468 86.2017 43.2454 86.7547 42.6845C87.2801 42.177 88.0267 41.8564 88.9115 41.8564C89.8517 41.8564 90.5983 42.177 91.1513 42.6845C91.6767 43.2187 91.9532 43.9933 91.9532 44.8748C91.9256 45.8097 91.649 46.5843 91.0684 47.1452ZM88.8562 43.0584C87.8884 43.0584 87.4184 43.8598 87.4184 44.9282C87.4184 46.0768 87.9714 46.8247 88.9115 46.8247C89.8793 46.8247 90.3494 46.0234 90.3494 44.9282C90.3494 43.8063 89.824 43.0584 88.8562 43.0584Z" fill="white"/>
<path d="M128.176 47.8664V44.4207C128.176 43.8064 128.066 43.1386 127.291 43.1386C126.766 43.1386 126.213 43.4057 125.743 43.7529V47.8397H124.194V41.99H125.494L125.66 42.6311C126.324 42.1503 126.96 41.8564 127.789 41.8564C128.702 41.8564 129.697 42.3907 129.697 43.9666V47.8397H128.176" fill="white"/>
<path d="M18.3448 0.000244141C17.7917 0.000244141 17.2387 0.026956 16.6857 0.080378V2.83161V32.9884V34.0568C17.2387 34.1102 17.7917 34.1369 18.3448 34.1369C28.1057 34.1369 36.0417 26.4976 36.0417 17.0686C36.0141 7.6396 28.1057 0.000244141 18.3448 0.000244141ZM24.8152 18.6178C24.7323 19.713 24.594 20.7814 24.3728 21.7964H20.2251V18.6178H24.8152ZM20.2251 15.4392V12.2606H24.3451C24.5664 13.3023 24.7323 14.3708 24.7876 15.4392H20.2251ZM28.2717 18.6178H32.4194C32.2811 19.713 32.0323 20.7814 31.6451 21.7964H27.8292C28.0504 20.7814 28.2163 19.713 28.2717 18.6178ZM28.2717 15.4392C28.1887 14.3441 28.0228 13.2756 27.8016 12.2606H31.6175C32.0046 13.2756 32.2811 14.3441 32.4194 15.4392H28.2717ZM29.8478 9.05528H26.8614C26.2807 7.50604 25.5065 6.09036 24.6217 4.78152C26.6955 5.76983 28.4929 7.23893 29.8478 9.05528ZM23.405 9.05528H20.2251V3.49939C21.5247 5.12876 22.6031 6.99853 23.405 9.05528ZM20.2251 30.6378V25.0018H23.4326C22.6584 27.0852 21.5523 28.9817 20.2251 30.6378ZM24.6493 29.3289C25.5618 28.0201 26.3084 26.551 26.9167 25.0018H29.9031C28.5482 26.8448 26.7508 28.3406 24.6493 29.3289Z" fill="white"/>
<path d="M75.3065 32.0806H66.0156V3.82031H75.1683C81.0857 3.82031 83.7955 7.72012 83.7955 11.1391C83.7955 13.8369 82.6342 15.6533 80.2838 17.0156V17.0957C83.6573 17.8169 85.7035 20.0873 85.7035 23.533C85.7035 27.5931 82.6895 32.0806 75.3065 32.0806ZM74.4217 8.20092H71.4077V15.5732H74.2558C76.6615 15.5732 78.4312 14.0773 78.4312 11.7268C78.4312 9.69674 76.9933 8.20092 74.4217 8.20092ZM75.4448 19.9003H71.4077V27.7267H74.8365C78.4312 27.7267 80.2008 26.1774 80.2008 23.6132C80.2008 21.4229 78.4588 19.9003 75.4448 19.9003Z" fill="white"/>
<path d="M107.272 8.17421H99.4741V32.0806H94.0544V8.17421H85.5654V3.82031H109.014L107.272 8.17421Z" fill="white"/>
<path d="M57.8593 32.0806L54.9559 25.0021H44.5036L41.7938 32.0806H36.4017L47.7112 3.82031H51.776L63.5002 32.0806H57.8593ZM50.9188 14.2643C50.3934 12.8486 50.0339 11.7001 49.8127 10.7652H49.7574C49.5915 11.7535 49.1767 12.8753 48.7067 14.1842L46.1627 20.7551H53.2968L50.9188 14.2643Z" fill="white"/>
<path d="M124.914 32.0806L122.01 25.0021H111.558L108.848 32.0806H103.484L114.793 3.82031H118.83L130.555 32.0806H124.914ZM117.973 14.2643C117.448 12.8486 117.088 11.7001 116.867 10.7652H116.812C116.646 11.7535 116.231 12.8753 115.733 14.1842L113.189 20.7551H120.324L117.973 14.2643Z" fill="white"/>
<path d="M14.9989 13.8369V12.5281L6.53754 4.35449C6.06747 4.75516 5.62504 5.18253 5.18262 5.63662L13.6716 13.8369H14.9989Z" fill="white"/>
<path d="M14.9989 20.1938V21.476L6.53754 29.6495C6.06747 29.2489 5.62504 28.8215 5.18262 28.3674L13.6716 20.1938H14.9989" fill="white"/>
<path d="M14.999 15.4661H0.730781C0.675478 16.0003 0.647827 16.5078 0.647827 17.0687C0.647827 17.6029 0.675478 18.1372 0.730781 18.6714H14.999V15.4661Z" fill="white"/>
<path d="M4.27032 6.75854C2.66654 8.81529 1.50517 11.2193 1.00745 13.8637H11.6256L4.27032 6.75854Z" fill="white"/>
<path d="M14.9986 10.5786V0.321533C12.2888 0.829042 9.77248 1.92419 7.64331 3.47343L14.9986 10.5786Z" fill="white"/>
<path d="M7.67102 30.558C9.80019 32.1073 12.2888 33.2291 15.0263 33.7099V23.4529L7.67102 30.558Z" fill="white"/>
<path d="M11.6256 20.1938H1.00745C1.53282 22.8115 2.66654 25.2422 4.27032 27.299L11.6256 20.1938Z" fill="white"/>
</svg>
