<svg width="53" height="20" viewBox="0 0 53 20" fill="none" xmlns="http://www.w3.org/2000/svg">
<path d="M7.78256 0C7.55864 0 7.33844 0.0111962 7.12012 0.0317226V14.1427C7.34012 14.1671 7.56122 14.1802 7.78256 14.1819C9.6632 14.1819 11.4668 13.4348 12.7966 12.105C14.1264 10.7752 14.8735 8.97158 14.8735 7.09095C14.8735 5.21031 14.1264 3.4067 12.7966 2.07689C11.4668 0.74708 9.6632 2.80237e-08 7.78256 0ZM10.3726 7.7254C10.345 8.16995 10.2864 8.61203 10.1972 9.04842H8.53831V7.7254H10.3726ZM8.52898 6.41917V5.08869H10.1804C10.2734 5.52418 10.3357 5.96564 10.367 6.40984L8.52898 6.41917ZM11.7572 7.74406H13.4199C13.3695 8.19598 13.2648 8.64018 13.1082 9.06708H11.5874C11.6802 8.63094 11.7426 8.18886 11.774 7.74406M11.774 6.41917C11.7427 5.97497 11.6804 5.53351 11.5874 5.09802H13.1138C13.27 5.52429 13.374 5.9679 13.4236 6.41917H11.774ZM12.401 3.77313H11.2049C10.9735 3.14838 10.6711 2.55231 10.3036 1.99666C11.1372 2.40876 11.8573 3.01866 12.401 3.77313ZM9.81654 3.77313H8.54577V1.45738C9.08497 2.15657 9.51356 2.93445 9.81654 3.7638M8.54577 12.7208V10.3789H9.8352C9.53074 11.2213 9.09629 12.0109 8.54764 12.7189L8.54577 12.7208ZM10.3148 12.1796C10.6855 11.6173 10.9892 11.0136 11.2198 10.3808H12.4215C11.8778 11.1444 11.1542 11.7622 10.3148 12.1796ZM30.6079 13.3235H26.8871V1.59546H30.5482C32.9162 1.59546 34.0004 3.21518 34.0004 4.63897C34.0004 5.75859 33.5376 6.50501 32.5953 7.07602V7.11147C33.9482 7.41191 34.7636 8.35799 34.7636 9.78177C34.7636 11.4612 33.5544 13.3272 30.6042 13.3272M30.2497 3.42045H29.0386V6.47142H30.175C31.1379 6.47142 31.8545 5.85003 31.8545 4.87036C31.8545 4.03624 31.2834 3.41298 30.2534 3.41298M30.6602 8.26468H29.0423V11.5079H30.412C31.8545 11.5079 32.5636 10.8641 32.5636 9.80043C32.5636 8.89167 31.8694 8.27028 30.6602 8.27028M43.4015 3.39432H40.2815V13.3198H38.1094V3.39432H34.7132V1.59546H44.1031L43.4015 3.39432ZM23.6122 13.3235L22.4534 10.3845H18.2641L17.1837 13.3235H15.0284L19.5703 1.5936H21.1826L25.8831 13.3235H23.6122ZM20.8448 5.9284C20.6625 5.45542 20.511 4.9711 20.3914 4.47849H20.3727C20.2681 4.96383 20.1245 5.43996 19.9435 5.90228L18.9265 8.62483H21.7779L20.8448 5.9284ZM50.4682 13.3235L49.3112 10.3845H45.1257L44.0416 13.3235H41.8844L46.4189 1.59733H48.033L52.7317 13.3235H50.4682ZM47.6934 5.9284C47.5142 5.4552 47.3658 4.97088 47.2493 4.47849H47.2306C47.1272 4.96373 46.9849 5.43987 46.8052 5.90228L45.7882 8.63229H48.6488L47.6934 5.9284Z" fill="#262626"/>
<path d="M6.44813 5.75019V5.21277L3.05754 1.82031C2.86876 1.98888 2.68935 2.16767 2.52012 2.35587L5.91631 5.75019H6.44813ZM6.44813 8.38503V8.92245L3.05754 12.3149C2.86919 12.1452 2.68981 11.9658 2.52012 11.7775L5.91631 8.38317L6.44813 8.38503ZM6.44813 6.41823H0.723129C0.702602 6.63469 0.691406 6.85488 0.691406 7.07881C0.691406 7.30273 0.702602 7.52106 0.723129 7.73752H6.4444L6.44813 6.41823Z" fill="#262626"/>
<path d="M2.14687 2.79973C1.48869 3.6665 1.04146 4.67468 0.840646 5.74434H5.09708L2.14687 2.79973ZM6.44809 4.39146V0.140625C5.37925 0.342242 4.37186 0.789404 3.50535 1.44685L6.44809 4.39146ZM3.50535 12.6897C4.37186 13.3472 5.37925 13.7943 6.44809 13.996V9.74699L3.50535 12.6897ZM5.09148 8.38665H0.836914C1.03773 9.45631 1.48496 10.4645 2.14314 11.3313L5.09148 8.38665ZM4.58952 17.0003H3.6565V19.915H3.01271V17.0003H2.01438V16.4722H4.74253L4.58952 17.0003ZM6.07862 18.0247C5.98963 17.9731 5.88852 17.9461 5.78565 17.9464C5.605 17.9574 5.43513 18.036 5.30981 18.1666V19.9169H4.68468V17.4444H5.21277L5.27995 17.7056C5.45761 17.5137 5.70352 17.3991 5.96479 17.3866C6.08771 17.3861 6.20794 17.4225 6.31 17.491L6.07862 18.0247ZM7.9913 19.915L7.88681 19.6948C7.69253 19.8755 7.43546 19.9732 7.17025 19.9673C6.96671 19.978 6.76722 19.9076 6.61544 19.7716C6.46366 19.6355 6.37195 19.4449 6.36039 19.2414V19.1723C6.36039 18.6611 6.76345 18.383 7.39417 18.3625L7.83269 18.3476V18.2878C7.83269 17.9893 7.6237 17.8699 7.36245 17.8699C7.13643 17.871 6.91529 17.9357 6.72427 18.0565L6.52087 17.6646C6.80634 17.4743 7.14462 17.3789 7.48747 17.3921C8.09953 17.3921 8.46901 17.6422 8.46901 18.2916V19.2694C8.45558 19.4882 8.47127 19.7078 8.51566 19.9225L7.9913 19.915ZM7.83456 18.7805L7.48001 18.7917C7.14039 18.8029 6.98924 18.9167 6.98924 19.1257C6.98924 19.3347 7.13106 19.4709 7.39231 19.4709C7.5548 19.4764 7.7134 19.4205 7.83642 19.3142L7.83456 18.7805ZM10.169 19.9318H9.71366L8.7004 17.4444H9.34232L9.95811 19.1238H9.96931L10.5963 17.4444H11.2028L10.169 19.9318ZM11.9604 18.8477C11.9644 18.9336 11.9854 19.0179 12.0222 19.0958C12.059 19.1736 12.1107 19.2434 12.1745 19.3011C12.2384 19.3589 12.3129 19.4034 12.394 19.4322C12.4751 19.4611 12.5611 19.4736 12.6471 19.469C12.8724 19.4688 13.0937 19.4096 13.289 19.2974L13.4401 19.7004C13.1761 19.8764 12.8655 19.9693 12.5482 19.9673C11.6861 19.9673 11.3203 19.3403 11.3203 18.676C11.3203 17.9706 11.7383 17.3847 12.4399 17.3847C13.108 17.3847 13.5484 17.8922 13.5484 18.6592V18.8458L11.9604 18.8477ZM12.4306 17.8605C12.3635 17.8636 12.2977 17.88 12.237 17.9086C12.1762 17.9372 12.1217 17.9776 12.0766 18.0274C12.0315 18.0772 11.9967 18.1354 11.9742 18.1986C11.9517 18.2619 11.9419 18.329 11.9454 18.3961H12.9065C12.8953 18.1292 12.7497 17.8531 12.4306 17.8531V17.8605ZM14.5933 19.9673C14.181 19.9673 14.0335 19.7322 14.0335 19.4243V16.2165H14.6605V19.1481C14.6605 19.3347 14.6978 19.4037 14.8285 19.4037C14.8915 19.4025 14.9541 19.3937 15.0151 19.3776L15.0934 19.8423C14.9409 19.9278 14.7682 19.971 14.5933 19.9673ZM19.3835 19.9318H18.9076L18.3478 18.2524H18.3366L17.7768 19.9318H17.2991L16.3978 17.4444H17.036L17.5641 19.1238H17.5753L18.1183 17.4444H18.6053L19.1539 19.1238H19.1651L19.682 17.4444H20.2848L19.3835 19.9318ZM20.9883 17.0563C20.9154 17.0526 20.8451 17.0277 20.7862 16.9845C20.7274 16.9413 20.6825 16.8819 20.6571 16.8134C20.6316 16.745 20.6269 16.6706 20.6433 16.5995C20.6597 16.5284 20.6967 16.4636 20.7495 16.4133C20.8024 16.3629 20.8689 16.3292 20.9407 16.3162C21.0125 16.3033 21.0866 16.3117 21.1537 16.3404C21.2208 16.3691 21.2781 16.4169 21.3183 16.4778C21.3585 16.5387 21.38 16.6101 21.3801 16.6831C21.3767 16.7842 21.3338 16.88 21.2605 16.9497C21.1872 17.0195 21.0894 17.0578 20.9883 17.0563ZM20.6748 19.9094V17.4444H21.3018V19.915L20.6748 19.9094ZM22.7965 19.9673C22.3579 19.9673 22.1844 19.721 22.1844 19.3869V17.9146H21.7459V17.4425H22.1825V16.8697L22.8095 16.6831V17.4407H23.5783L23.3917 17.9109H22.8058V19.1537C22.8058 19.3403 22.8786 19.4355 23.0409 19.4355C23.1882 19.4282 23.3307 19.3811 23.4533 19.2992L23.6212 19.6967C23.3785 19.8652 23.0918 19.9592 22.7965 19.9673ZM25.5769 19.915V18.4745C25.5769 18.1983 25.5358 17.937 25.2036 17.937C24.9795 17.9535 24.7676 18.0456 24.6028 18.1983V19.9169H23.9758V16.2165H24.6084V17.7094C24.8352 17.5076 25.126 17.3926 25.4294 17.3847C25.8026 17.3847 26.2188 17.5713 26.2188 18.2934V19.9132L25.5769 19.915ZM29.1242 19.9673C28.3199 19.9673 27.9075 19.3869 27.9075 18.6928C27.8944 18.3601 28.0137 18.0357 28.2393 17.7909C28.465 17.546 28.7785 17.4006 29.1111 17.3866H29.1876C29.4341 17.3774 29.6783 17.4368 29.893 17.5582L29.8818 18.0695C29.7044 17.932 29.4848 17.8601 29.2604 17.8661C29.1624 17.8676 29.0656 17.8883 28.9756 17.9272C28.8856 17.9661 28.8041 18.0223 28.7359 18.0926C28.6676 18.163 28.6138 18.2461 28.5777 18.3372C28.5416 18.4284 28.5237 18.5257 28.5252 18.6237V18.6611C28.5252 19.0846 28.7547 19.4597 29.2455 19.4597C29.4522 19.4601 29.655 19.4033 29.8314 19.2955L29.9882 19.7079C29.7301 19.8735 29.4308 19.9634 29.1242 19.9673ZM32.3636 19.6127C32.1908 19.7973 31.965 19.9238 31.7174 19.9751C31.4698 20.0263 31.2124 19.9998 30.9805 19.899C30.7486 19.7983 30.5535 19.6283 30.4219 19.4124C30.2904 19.1964 30.2288 18.9451 30.2457 18.6928C30.2353 18.3393 30.3647 17.996 30.6058 17.7374C30.7209 17.6229 30.8578 17.5328 31.0085 17.4725C31.1593 17.4122 31.3206 17.383 31.4829 17.3866C31.6505 17.3805 31.8176 17.4089 31.9739 17.4699C32.1302 17.5308 32.2723 17.6231 32.3916 17.7411C32.6158 17.999 32.7332 18.3327 32.72 18.6741C32.7255 18.8463 32.6968 19.0179 32.6356 19.179C32.5745 19.3401 32.482 19.4875 32.3636 19.6127ZM31.4642 17.8829C31.0667 17.8829 30.8745 18.2169 30.8745 18.6778C30.8745 19.1388 31.0985 19.4821 31.481 19.4821C31.8635 19.4821 32.0707 19.1425 32.0707 18.6778C32.0707 18.2132 31.8523 17.8829 31.4642 17.8829ZM34.8081 19.915V18.4633C34.8081 18.2076 34.7615 17.9258 34.4349 17.9258C34.2035 17.9443 33.984 18.0358 33.8079 18.1871V19.9169H33.1922V17.4444H33.7202L33.7874 17.7112C34.0313 17.5087 34.3363 17.3943 34.6533 17.3866C35.0265 17.3866 35.4314 17.6105 35.4314 18.2748V19.915H34.8081ZM37.4374 16.795C37.3383 16.7522 37.2318 16.7294 37.1239 16.7278C36.9261 16.7278 36.8309 16.8473 36.8309 17.0619V17.4537H37.484L37.3217 17.9352H36.8309V19.9262H36.2039V17.924H35.8438V17.4425H36.2039V17.0973C36.2039 16.3658 36.732 16.2147 37.0772 16.2147C37.2449 16.2165 37.4103 16.254 37.5624 16.3248L37.4374 16.795ZM38.2305 17.0563C38.1575 17.0526 38.0873 17.0277 38.0284 16.9845C37.9696 16.9413 37.9247 16.8819 37.8992 16.8134C37.8738 16.745 37.8691 16.6706 37.8855 16.5995C37.9019 16.5284 37.9389 16.4636 37.9917 16.4133C38.0446 16.3629 38.1111 16.3292 38.1829 16.3162C38.2547 16.3033 38.3288 16.3117 38.3959 16.3404C38.463 16.3691 38.5202 16.4169 38.5605 16.4778C38.6007 16.5387 38.6222 16.6101 38.6223 16.6831C38.6189 16.7842 38.5759 16.88 38.5027 16.9497C38.4294 17.0195 38.3316 17.0578 38.2305 17.0563ZM37.917 19.9094V17.4444H38.544V19.915L37.917 19.9094ZM40.438 19.9673C39.6916 19.9673 39.0944 19.5344 39.0944 18.6984C39.0944 17.9296 39.6636 17.3921 40.4641 17.3921C40.569 17.3897 40.6739 17.3966 40.7776 17.4127V16.2165H41.4102V19.762C41.1074 19.9079 40.7739 19.9783 40.438 19.9673ZM40.7776 17.9146C40.6822 17.8883 40.5836 17.8757 40.4846 17.8773C40.2914 17.8677 40.1022 17.9352 39.9587 18.065C39.8152 18.1949 39.7292 18.3764 39.7196 18.5696V18.6611C39.7145 18.759 39.7288 18.8569 39.7617 18.9493C39.7945 19.0416 39.8452 19.1266 39.9108 19.1994C39.9765 19.2722 40.0559 19.3313 40.1444 19.3734C40.2329 19.4155 40.3289 19.4398 40.4268 19.4448H40.4921C40.5872 19.4446 40.6819 19.432 40.7739 19.4075L40.7776 17.9146ZM42.4906 18.8477C42.4947 18.9336 42.5157 19.0179 42.5524 19.0958C42.5892 19.1736 42.641 19.2434 42.7048 19.3011C42.7686 19.3589 42.8432 19.4034 42.9243 19.4322C43.0054 19.4611 43.0914 19.4736 43.1773 19.469C43.4019 19.4694 43.6225 19.4108 43.8174 19.2992L43.9685 19.7023C43.7033 19.8803 43.3904 19.974 43.071 19.971C42.2089 19.971 41.8431 19.344 41.8431 18.6797C41.8431 17.9744 42.2611 17.3884 42.9627 17.3884C43.6308 17.3884 44.0712 17.896 44.0712 18.6629V18.8495L42.4906 18.8477ZM42.9609 17.8605C42.8938 17.8636 42.828 17.88 42.7672 17.9086C42.7065 17.9372 42.652 17.9776 42.6069 18.0274C42.5618 18.0772 42.527 18.1354 42.5045 18.1986C42.482 18.2619 42.4722 18.329 42.4757 18.3961H43.4367C43.4255 18.1292 43.28 17.8531 42.9609 17.8531V17.8605ZM46.1779 19.915V18.4633C46.1779 18.2076 46.1313 17.9258 45.8047 17.9258C45.5733 17.9443 45.3537 18.0358 45.1777 18.1871V19.9169H44.5433V17.4444H45.077L45.1441 17.7112C45.3885 17.5083 45.6943 17.3939 46.0118 17.3866C46.385 17.3866 46.79 17.6105 46.79 18.2748V19.915H46.1779ZM48.4825 19.9673C47.6782 19.9673 47.2658 19.3869 47.2658 18.6928C47.2527 18.3601 47.372 18.0357 47.5976 17.7909C47.8232 17.546 48.1367 17.4006 48.4694 17.3866H48.5459C48.7924 17.3774 49.0366 17.4368 49.2513 17.5582L49.2401 18.0695C49.0626 17.932 48.8431 17.8601 48.6187 17.8661C48.5207 17.8685 48.4241 17.8903 48.3344 17.93C48.2448 17.9698 48.1639 18.0268 48.0963 18.0979C48.0287 18.1689 47.9758 18.2526 47.9405 18.3441C47.9053 18.4356 47.8885 18.5332 47.8909 18.6312V18.6611C47.8909 19.0846 48.1205 19.4597 48.6112 19.4597C48.8187 19.4579 49.0215 19.3984 49.1972 19.288L49.3539 19.7004C49.0946 19.8702 48.7924 19.9627 48.4825 19.9673ZM50.2328 18.8477C50.2369 18.9336 50.2579 19.0179 50.2946 19.0958C50.3314 19.1736 50.3832 19.2434 50.447 19.3011C50.5108 19.3589 50.5854 19.4034 50.6665 19.4322C50.7476 19.4611 50.8336 19.4736 50.9195 19.469C51.1448 19.4688 51.3661 19.4096 51.5614 19.2974L51.7126 19.7004C51.4471 19.8798 51.1336 19.9748 50.8132 19.9729C49.951 19.9729 49.5853 19.3459 49.5853 18.6816C49.5853 17.9762 50.0033 17.3903 50.7049 17.3903C51.373 17.3903 51.8133 17.8978 51.8133 18.6648V18.8514L50.2328 18.8477ZM50.7012 17.8568C50.6341 17.8599 50.5683 17.8762 50.5075 17.9049C50.4468 17.9335 50.3923 17.9739 50.3472 18.0237C50.3021 18.0734 50.2673 18.1316 50.2448 18.1949C50.2223 18.2582 50.2125 18.3253 50.216 18.3923H51.177C51.1658 18.1255 51.0184 17.8493 50.7012 17.8493V17.8568Z" fill="#262626"/>
</svg>
