<svg width="49" height="48" viewBox="0 0 49 48" fill="none" xmlns="http://www.w3.org/2000/svg">
<path fill-rule="evenodd" clip-rule="evenodd" d="M20.4809 47.6332C7.44961 45.3349 -1.28209 32.8636 1.01433 19.8327C3.31252 6.8015 15.7839 -1.9313 28.8149 0.367188C40.4428 2.41781 48.6478 12.5669 48.6478 23.9872C48.6478 25.3666 48.5283 26.763 48.2809 28.1669C45.9827 41.1976 33.5129 49.9304 20.4809 47.6332ZM2.53972 20.1015C0.391339 32.2914 8.55993 43.958 20.7502 46.1076C32.9401 48.2566 44.6062 40.0875 46.7556 27.8981C48.9049 15.7075 40.7369 4.04159 28.5461 1.89203C16.3559 -0.257791 4.68987 7.91137 2.53972 20.1015ZM4.03896 29.0579L4.03895 29.0578L4.03895 29.0578C4.01492 28.9221 3.99096 28.7868 3.95471 28.6549C3.91829 28.5205 3.8695 28.3898 3.82061 28.2589C3.80472 28.2163 3.78881 28.1737 3.77332 28.131L8.64784 26.8003L9.12532 28.5496C9.39513 29.5374 9.14275 30.1795 8.33989 30.3991C7.07446 30.7447 6.55277 29.8938 6.20313 28.6135L4.06435 29.1983C4.05556 29.1516 4.04728 29.1049 4.03901 29.0582L4.03896 29.0579ZM6.5942 28.5069L6.60122 28.5285C6.64928 28.6765 6.69908 28.8299 6.77231 28.9624C7.02646 29.3901 7.4774 29.4502 7.91041 29.3325C8.47959 29.1766 8.77669 28.7827 8.67589 28.4121L8.55488 27.9708L6.5942 28.5069ZM10.6396 32.0884L9.84557 30.7343L5.48818 33.294C5.51696 33.3355 5.54629 33.3768 5.57562 33.418L5.57568 33.4181L5.57573 33.4182L5.57578 33.4183L5.57595 33.4185C5.65386 33.5281 5.73177 33.6376 5.79942 33.7528C5.87185 33.8764 5.93299 34.0066 5.99398 34.1365C6.01149 34.1738 6.029 34.2111 6.04675 34.2482L8.0865 33.0504L8.11277 33.0949C8.04684 33.2115 7.97603 33.3397 7.90746 33.4637L7.90721 33.4642L7.90714 33.4643L7.90697 33.4646C7.80994 33.6402 7.71744 33.8076 7.6497 33.9225L6.75942 35.4621C6.79381 35.513 6.82879 35.5636 6.86376 35.6142C6.95493 35.7461 7.04612 35.8781 7.127 36.0156C7.2118 36.1602 7.28362 36.3072 7.35492 36.4531L7.35497 36.4531C7.38116 36.5067 7.40728 36.5602 7.43395 36.6133L7.68279 36.1343C7.76724 35.967 7.8509 35.7991 7.93458 35.6313L7.93471 35.631L7.93473 35.631C8.21524 35.0682 8.49596 34.505 8.80726 33.9594C9.2817 34.4768 9.91025 34.6451 10.5327 34.2798C10.965 34.0264 11.1385 33.6679 11.1168 33.1934C11.1013 32.8685 10.8543 32.4512 10.6783 32.154L10.6396 32.0884ZM9.85315 33.3541C9.19909 33.7384 8.68776 33.5949 8.35934 32.8905L10.0613 31.8891C10.0796 31.9203 10.0986 31.952 10.1178 31.9839C10.3372 32.3492 10.5823 32.7574 10.1523 33.1353C10.0343 33.2399 9.94258 33.3016 9.85315 33.3541ZM40.7482 33.5416C39.8009 32.792 38.5379 32.619 37.514 33.8202L35.9515 35.7973L39.8857 38.9115L41.1653 37.2919C42.1021 36.1065 42.0541 34.5746 40.7482 33.5416ZM40.6247 37.2876L40.2359 37.7785L36.9721 35.1961L37.4193 34.6291C38.0635 33.8129 38.8972 33.6371 39.9835 34.497C41.3361 35.5667 41.2548 36.4893 40.6247 37.2876ZM35.2538 36.4155L35.2537 36.4153L35.2393 36.3863L35.2211 36.3501L32.9275 37.9687L35.8179 42.0717L38.1115 40.4526C38.101 40.4412 38.0903 40.4299 38.0794 40.4186L38.0516 40.3899C37.9975 40.334 37.9419 40.2767 37.8988 40.2151C37.8527 40.1492 37.8152 40.0728 37.7786 39.9983C37.7681 39.9767 37.7576 39.9553 37.747 39.9344C37.4132 40.2421 37.0252 40.5609 36.4156 40.9998L35.3376 39.4706L35.9636 39.0277C36.2337 38.837 36.4985 38.6867 36.7417 38.5596L36.7294 38.5465L36.7121 38.5285L36.6881 38.5036L36.688 38.5036L36.6879 38.5035C36.6317 38.4454 36.5741 38.386 36.53 38.3221C36.4816 38.2538 36.4418 38.1728 36.4036 38.0948L36.4034 38.0943L36.4024 38.0924L36.4016 38.0909L36.3772 38.0414C36.1758 38.2294 35.9449 38.4275 35.6751 38.6182L35.0481 39.0608L34.1364 37.7656C34.7414 37.3199 35.1848 37.0794 35.5857 36.8682C35.5678 36.849 35.5492 36.8297 35.5304 36.8102C35.4747 36.7525 35.4175 36.6932 35.3735 36.6297C35.3278 36.5656 35.2902 36.4894 35.2538 36.4155ZM32.9146 43.5852C32.8655 43.6002 32.8161 43.6146 32.7668 43.629C32.6386 43.6665 32.5105 43.7038 32.3869 43.7522C32.2569 43.8033 32.132 43.8663 32.0067 43.9294L32.0067 43.9294L32.0066 43.9294L32.0066 43.9295L32.0065 43.9295L32.0065 43.9295L32.0064 43.9295L32.0064 43.9295L32.0063 43.9296L32.0063 43.9296L32.0062 43.9296L32.0062 43.9296C31.9662 43.9498 31.9263 43.9699 31.8862 43.9897L30.2314 39.7684C29.7444 39.9602 29.3316 40.1772 28.994 40.3659C28.9883 40.3418 28.983 40.3175 28.9776 40.2932C28.9604 40.215 28.943 40.1356 28.9122 40.0572C28.8826 39.9816 28.8407 39.9111 28.7988 39.8407C28.7873 39.8215 28.7758 39.8022 28.7646 39.7828L32.2967 38.3959L32.3002 38.4114L32.3114 38.4631L32.3115 38.4634L32.3116 38.4636C32.3285 38.5427 32.3457 38.6225 32.3748 38.6973C32.4055 38.7769 32.4477 38.8478 32.4893 38.9175C32.5014 38.9377 32.5134 38.9579 32.5251 38.9782L32.4964 38.9857L32.4964 38.9858L32.4963 38.9858C32.0827 39.0946 31.6683 39.2037 31.2599 39.364L32.9146 43.5852ZM28.6391 44.7473L28.7394 44.1016L28.6398 44.0665C28.3402 44.4136 27.8355 44.7001 27.38 44.7443C26.2515 44.8542 25.5502 44.0334 25.4284 42.7785C25.3238 41.699 25.7028 40.4849 26.9197 40.3674C27.3964 40.3209 27.8918 40.5546 28.2018 40.9237L28.3046 40.9149C28.3175 40.815 28.3284 40.7165 28.3391 40.6187L28.3391 40.6186C28.3567 40.4586 28.3741 40.3006 28.4001 40.1421C27.9519 39.9488 27.3529 39.8811 26.8686 39.9271C25.272 40.0827 24.0361 41.0839 24.2218 42.9996C24.3676 44.5038 25.6487 45.3564 27.2175 45.2046C27.7092 45.1571 28.2212 45.0179 28.6391 44.7473ZM23.4654 40.2257C23.4587 40.247 23.4515 40.2686 23.4442 40.2904L23.4442 40.2905L23.4442 40.2906L23.4441 40.2907C23.4177 40.3702 23.3904 40.4526 23.3775 40.5324C23.3637 40.6105 23.3626 40.6957 23.3616 40.7783V40.7784C23.3613 40.8029 23.361 40.8272 23.3603 40.851C22.9263 40.7178 22.443 40.5751 21.6996 40.4647L21.435 42.0277L22.1904 42.1545C22.5176 42.2101 22.8197 42.2318 23.0948 42.2409C23.0875 42.2641 23.0796 42.2877 23.0716 42.3115L23.0715 42.3119C23.0455 42.3898 23.0187 42.4701 23.0054 42.5476C22.9922 42.6245 22.9909 42.7079 22.9896 42.7891V42.7892C22.9892 42.8153 22.9888 42.8411 22.988 42.8664C22.7257 42.7846 22.4332 42.7055 22.107 42.6499L21.3514 42.5216L21.0387 44.3671C21.7809 44.4858 22.2806 44.5338 22.7333 44.5505C22.7253 44.5762 22.7166 44.6025 22.7077 44.629C22.6826 44.7044 22.6568 44.782 22.6446 44.8572C22.6312 44.9354 22.6299 45.0197 22.6287 45.1023C22.6283 45.127 22.6279 45.1516 22.6272 45.1758L19.8606 44.7054L20.6996 39.7563L23.4654 40.2257ZM16.6048 43.6635L16.6051 43.6637C16.648 43.687 16.6909 43.7104 16.7341 43.7332L18.5331 39.5721C18.9451 39.7512 19.3241 39.9698 19.7022 40.1901C19.7097 40.1632 19.7166 40.1361 19.7235 40.1087L19.7235 40.1087L19.7236 40.1084C19.7424 40.0342 19.7614 39.9588 19.7937 39.8849C19.8257 39.8116 19.8694 39.7433 19.913 39.6751L19.933 39.6438L19.9511 39.6151L16.4696 38.1079C16.4621 38.1348 16.4551 38.162 16.4481 38.1892C16.4292 38.2634 16.4102 38.3374 16.3799 38.4067C16.3478 38.482 16.3057 38.548 16.264 38.6134L16.264 38.6135C16.2493 38.6365 16.2346 38.6596 16.2205 38.6829C16.5926 38.788 17.0393 38.9249 17.519 39.1326L15.7208 43.2934C15.7691 43.3101 15.8177 43.3262 15.8663 43.3423L15.8664 43.3423L15.8665 43.3423C15.9932 43.3843 16.1202 43.4262 16.2425 43.4801C16.3661 43.5336 16.4855 43.5985 16.6048 43.6635ZM10.5598 40.0264C9.33576 38.9537 9.14022 37.5094 10.2417 36.2493C11.207 35.1458 12.7925 34.9571 14.1721 36.1667C15.7513 37.5501 15.2418 39.0729 14.4953 39.9374C13.5542 41.024 11.9174 41.2165 10.5598 40.0264ZM11.0206 37.2171C10.3905 37.9379 10.0477 38.9903 10.8793 39.7189C11.7325 40.4662 12.8617 39.9473 13.6676 39.0265C14.2931 38.3107 14.6779 37.1987 13.8473 36.4698C13.0767 35.7945 12.1076 35.9744 11.0206 37.2171ZM28.9647 32.2408L29.3813 29.8961L30.3512 30.0691L30.0089 31.9929L32.3073 32.4009L32.2343 32.8236L28.9647 32.2408ZM24.9489 30.3147C24.9014 30.5787 24.9805 30.8043 25.1831 30.9859C25.3862 31.1704 25.6803 31.2974 26.0645 31.3657C26.4478 31.4344 26.7658 31.4162 27.0169 31.3139C27.2686 31.21 27.4176 31.0261 27.4643 30.7629C27.5108 30.4991 27.4335 30.275 27.2342 30.0914C27.0344 29.9082 26.7416 29.7827 26.3576 29.715C25.9741 29.6465 25.654 29.6622 25.4006 29.7652C25.1465 29.8675 24.9954 30.0502 24.9489 30.3147ZM26.4313 29.2991C27.0935 29.4166 27.5851 29.5982 27.9032 29.8428C28.3332 30.1419 28.5097 30.5049 28.4332 30.9349C28.3589 31.3553 28.0679 31.6365 27.5598 31.7769C27.1763 31.8974 26.6547 31.899 25.99 31.7807C25.3268 31.662 24.8367 31.4816 24.5187 31.2366C24.0887 30.9291 23.9106 30.5646 23.9841 30.1434C24.0617 29.7142 24.3542 29.433 24.8622 29.3022C25.245 29.1811 25.7682 29.1804 26.4313 29.2991ZM20.0398 28.2363L23.7992 28.9038L23.7249 29.3196L22.3369 29.0728L21.9941 31.0019L21.0185 30.8283L21.3605 28.8984L19.966 28.6504L20.0398 28.2363ZM17.5445 28.3459L16.7801 29.1589L17.9596 29.3706L17.5445 28.3459ZM17.1009 27.7136L18.1963 27.9076L19.4241 30.5456L18.3724 30.3577L18.1587 29.8238L16.442 29.5184L16.0424 29.9436L15.0291 29.764L17.1009 27.7136ZM33.7913 28.4798L32.5133 35.6776L32.5018 35.742L13.0315 32.3118L17.3106 8.00557L21.1433 8.68666C18.2557 13.9144 18.291 19.6309 22.8948 24.4415C27.4974 29.2501 33.7913 28.4798 33.7913 28.4798ZM25.7417 21.7962C28.4822 27.2543 33.9964 27.3251 33.9964 27.3251L36.817 11.4426L29.83 10.1992C29.83 10.1992 21.9575 14.2529 25.7417 21.7962Z" fill="white"/>
</svg>
