<svg width="40" height="40" viewBox="0 0 40 40" fill="none" xmlns="http://www.w3.org/2000/svg">
<rect width="40" height="40" fill="#E5E5E5"/>
<rect width="1440" height="798" transform="translate(-113 -226)" fill="#F5F5F5"/>
<circle cx="20" cy="20" r="20" fill="black"/>
<path d="M12.2595 23.5993C11.1408 21.7135 10.7491 19.4842 11.1577 17.33C11.5664 15.1758 12.7475 13.2449 14.4791 11.8999C16.2107 10.5548 18.3738 9.88821 20.5621 10.0251C22.7504 10.1621 24.8135 11.0932 26.3639 12.6436C27.9144 14.194 28.8455 16.2571 28.9824 18.4454C29.1194 20.6338 28.4527 22.7968 27.1077 24.5284C25.7627 26.2601 23.8318 27.4411 21.6776 27.8498C19.5234 28.2585 17.2941 27.8668 15.4083 26.7481L15.4083 26.748L12.2986 27.6365C12.17 27.6733 12.0338 27.675 11.9043 27.6414C11.7748 27.6078 11.6566 27.5402 11.5619 27.4456C11.4673 27.351 11.3997 27.2328 11.3662 27.1033C11.3326 26.9738 11.3343 26.8376 11.371 26.7089L12.2595 23.5992L12.2595 23.5993Z" stroke="white" stroke-width="1.5" stroke-linecap="round" stroke-linejoin="round"/>
<path d="M16.667 16.4858H23.3337" stroke="white" stroke-width="1.5" stroke-linecap="round" stroke-linejoin="round"/>
<path d="M16.667 21.0752H23.3337" stroke="white" stroke-width="1.5" stroke-linecap="round" stroke-linejoin="round"/>
</svg>
