<svg width="40" height="40" viewBox="0 0 40 40" fill="none" xmlns="http://www.w3.org/2000/svg">
<rect width="40" height="40" fill="#E5E5E5"/>
<rect width="1440" height="798" transform="translate(-116 -372)" fill="#F5F5F5"/>
<circle cx="20" cy="20" r="20" fill="black"/>
<path d="M20 21.9577V19.7355C20.9889 19.7355 21.9556 19.45 22.7778 18.9151C23.6001 18.3802 24.241 17.62 24.6194 16.7305C24.9978 15.8411 25.0969 14.8623 24.9039 13.9181C24.711 12.9738 24.2348 12.1065 23.5355 11.4257C22.8363 10.745 21.9454 10.2814 20.9755 10.0935C20.0055 9.90571 19.0002 10.0021 18.0866 10.3705C17.173 10.739 16.3921 11.3629 15.8427 12.1634C15.2932 12.9639 15 13.905 15 14.8677" stroke="white" stroke-width="2.5" stroke-linecap="round" stroke-linejoin="round"/>
<path d="M19.9999 30C20.9604 30 21.739 29.242 21.739 28.3069C21.739 27.3718 20.9604 26.6138 19.9999 26.6138C19.0394 26.6138 18.2607 27.3718 18.2607 28.3069C18.2607 29.242 19.0394 30 19.9999 30Z" fill="white"/>
</svg>
