<svg width="57" height="30" viewBox="0 0 57 30" fill="none" xmlns="http://www.w3.org/2000/svg">
<g clip-path="url(#clip0_2704_5465)">
<path d="M41.8404 1.215C43.6976 1.21269 45.536 1.58263 47.2448 2.3025C50.5879 3.71041 53.2501 6.3446 54.673 9.6525C55.3983 11.344 55.7721 13.1626 55.7721 15C55.7721 16.8374 55.3983 18.656 54.673 20.3475C53.2501 23.6554 50.5879 26.2896 47.2448 27.6975C45.536 28.4174 43.6976 28.7873 41.8404 28.785H15.1596C13.3024 28.7873 11.464 28.4174 9.75519 27.6975C6.41209 26.2896 3.74988 23.6554 2.32699 20.3475C1.60171 18.656 1.22793 16.8374 1.22793 15C1.22793 13.1626 1.60171 11.344 2.32699 9.6525C3.74988 6.3446 6.41209 3.71041 9.75519 2.3025C11.464 1.58263 13.3024 1.21269 15.1596 1.215H41.8404ZM41.8404 0H15.1596C6.82181 0 0 6.75 0 15C0 23.25 6.82181 30 15.1596 30H41.8404C50.1782 30 57 23.25 57 15C57 6.75 50.1782 0 41.8404 0Z" fill="#3C4043"/>
<path d="M27.1811 16.065V20.6025H25.7258V9.39746H29.5839C30.5617 9.39746 31.3955 9.71996 32.0777 10.365C32.775 11.01 33.1237 11.7975 33.1237 12.7275C33.1333 13.175 33.0448 13.6193 32.8642 14.0297C32.6836 14.4402 32.4153 14.807 32.0777 15.105C31.4031 15.7425 30.5693 16.0575 29.5839 16.0575H27.1811V16.065ZM27.1811 10.7775V14.685H29.6143C29.8816 14.6919 30.1474 14.6443 30.3952 14.5449C30.643 14.4455 30.8675 14.2966 31.0544 14.1075C31.2406 13.9298 31.3884 13.7165 31.4887 13.4805C31.5891 13.2446 31.6399 12.9909 31.6381 12.735C31.639 12.4813 31.5878 12.2302 31.4875 11.9968C31.3871 11.7634 31.2398 11.5527 31.0544 11.3775C30.6754 10.98 30.1979 10.785 29.6143 10.785H27.1811V10.7775Z" fill="#3C4043"/>
<path d="M36.9288 12.6826C38.0051 12.6826 38.8541 12.9676 39.4756 13.5376C40.0971 14.1076 40.4079 14.8876 40.4079 15.8776V20.6026H39.0208V19.5376H38.9602C38.3614 20.4151 37.5579 20.8501 36.5574 20.8501C35.7009 20.8501 34.9884 20.6026 34.4123 20.1001C34.1363 19.8709 33.9155 19.5837 33.766 19.2593C33.6165 18.9349 33.5421 18.5816 33.5482 18.2251C33.5482 17.4301 33.8514 16.8001 34.4578 16.3351C35.0642 15.8626 35.8752 15.6301 36.8833 15.6301C37.7474 15.6301 38.4599 15.7876 39.0132 16.1026V15.7726C39.0132 15.2701 38.8162 14.8501 38.4144 14.4976C38.0286 14.1523 37.5248 13.9647 37.0046 13.9726C36.1935 13.9726 35.5493 14.3101 35.0793 14.9926L33.7983 14.1976C34.5033 13.1851 35.5467 12.6801 36.9288 12.6826ZM35.049 18.2476C35.0473 18.431 35.0906 18.6121 35.1751 18.7754C35.2595 18.9387 35.3827 19.0792 35.5341 19.1851C35.8559 19.4347 36.2547 19.5671 36.6635 19.5601C37.2775 19.5601 37.8232 19.3351 38.3007 18.8851C38.7783 18.4351 39.0208 17.9101 39.0208 17.3026C38.566 16.9501 37.9369 16.7701 37.1259 16.7701C36.5346 16.7701 36.042 16.9126 35.6478 17.1901C35.2461 17.4826 35.049 17.8351 35.049 18.2476Z" fill="#3C4043"/>
<path d="M48.3213 12.9302L43.4702 23.9702H41.9694L43.7734 20.1077L40.5747 12.9302H42.1589L44.4631 18.4352H44.4935L46.7371 12.9302H48.3213Z" fill="#3C4043"/>
<path d="M21.3926 15.1503C21.393 14.6976 21.3524 14.2458 21.2714 13.8003H15.1711V16.2753H18.6844C18.6169 16.6783 18.4663 17.0632 18.242 17.4062C18.0177 17.7492 17.7245 18.0428 17.3807 18.2688V19.8753H19.4719C20.693 18.7563 21.3926 17.1003 21.3926 15.1503Z" fill="#4285F4"/>
<path d="M17.3805 18.2687C16.7983 18.6572 16.0487 18.8844 15.1717 18.8844C13.4776 18.8844 12.0405 17.7549 11.5258 16.2324H9.36938V17.8884C9.91018 18.9525 10.7392 19.8468 11.764 20.4717C12.7887 21.0965 13.9688 21.4272 15.1725 21.4269C16.9264 21.4269 18.3999 20.8562 19.4725 19.8737L17.3805 18.2687Z" fill="#34A853"/>
<path d="M11.3236 15.0039C11.3238 14.586 11.3924 14.1709 11.5267 13.7747V12.1187H9.36948C8.91541 13.0141 8.67896 14.0021 8.67896 15.0039C8.67896 16.0057 8.91541 16.9937 9.36948 17.8892L11.5267 16.2332C11.3924 15.8369 11.3238 15.4218 11.3236 15.0039Z" fill="#FABB05"/>
<path d="M15.1725 11.1226C16.0986 11.1078 16.9935 11.4539 17.6639 12.0863L19.5172 10.2541C18.3916 9.21683 16.9257 8.58008 15.1725 8.58008C13.9688 8.57993 12.7888 8.91072 11.7641 9.53555C10.7394 10.1604 9.91032 11.0546 9.36938 12.1186L11.5266 13.7746C12.0413 12.2521 13.4784 11.1226 15.1725 11.1226Z" fill="#E94235"/>
</g>
<defs>
<clipPath id="clip0_2704_5465">
<rect width="57" height="30" fill="white"/>
</clipPath>
</defs>
</svg>
