<svg width="48" height="49" viewBox="0 0 48 49" fill="none" xmlns="http://www.w3.org/2000/svg">
<path d="M28.5938 24.4156C28.5938 26.9552 26.5371 29.0139 24 29.0139C21.4629 29.0139 19.4062 26.9552 19.4062 24.4156C19.4062 21.876 21.4629 19.8174 24 19.8174C26.5371 19.8174 28.5938 21.876 28.5938 24.4156Z" fill="#262626"/>
<path fill-rule="evenodd" clip-rule="evenodd" d="M0 24.4156C0 11.1498 10.7472 0.39209 24 0.39209C37.2528 0.39209 48 11.1498 48 24.4156C48 37.6814 37.2528 48.4391 24 48.4391C10.7472 48.4391 0 37.6814 0 24.4156ZM37.0576 33.4516C37.3982 32.574 37.6315 31.5714 37.6981 30.103C37.7655 28.6319 37.7812 28.162 37.7812 24.4156C37.7812 20.6693 37.7655 20.1993 37.6985 18.7283C37.6315 17.2598 37.3986 16.2572 37.0576 15.3797C36.7119 14.4592 36.1692 13.6256 35.4683 12.9365C34.7798 12.2345 33.9467 11.6912 33.0271 11.3448C32.1504 11.0043 31.1488 10.7712 29.6818 10.7044C28.2122 10.637 27.7427 10.6209 24 10.6209C20.2573 10.6209 19.7878 10.637 18.3182 10.7041C16.8512 10.7712 15.8496 11.0043 14.9729 11.3452C14.0533 11.6916 13.2202 12.2345 12.5321 12.9365C11.8308 13.6253 11.2881 14.4592 10.942 15.3797C10.6014 16.2572 10.3685 17.2598 10.3019 18.7283C10.2345 20.1993 10.2188 20.6693 10.2188 24.4156C10.2188 28.162 10.2345 28.6319 10.3022 30.1033C10.3689 31.5714 10.6022 32.5744 10.9427 33.4516C11.2888 34.372 11.8312 35.206 12.5321 35.8948C13.2206 36.5967 14.0533 37.1396 14.9733 37.486C15.8496 37.8269 16.8516 38.0601 18.3182 38.1272C19.7882 38.1943 20.2573 38.2104 24.0004 38.2104C27.743 38.2104 28.2125 38.1943 29.6821 38.1272C31.1488 38.0601 32.1508 37.8269 33.0271 37.486C34.8783 36.7694 36.3417 35.3046 37.0576 33.4516ZM33.7123 14.6938C34.17 15.1388 34.5223 15.681 34.7432 16.28C34.9321 16.766 35.1566 17.4966 35.2178 18.8416C35.2841 20.2961 35.298 20.7323 35.298 24.416C35.298 28.0993 35.2841 28.5355 35.2178 29.9904C35.1562 31.3354 34.9318 32.0656 34.7432 32.5516C34.2795 33.7547 33.3296 34.7056 32.1277 35.1697C31.6421 35.3588 30.9122 35.5835 29.5686 35.6448C28.1158 35.7111 27.6801 35.725 23.9996 35.725C20.3196 35.725 19.8842 35.7111 18.431 35.6448C17.0874 35.5835 16.3575 35.3588 15.8719 35.1697C15.2732 34.9486 14.7319 34.596 14.2874 34.1378C13.8296 33.6928 13.4777 33.151 13.2565 32.5516C13.0679 32.0656 12.8434 31.3354 12.7822 29.9904C12.7159 28.5355 12.7017 28.0993 12.7017 24.416C12.7017 20.7323 12.7159 20.2961 12.7822 18.8416C12.8434 17.4966 13.0679 16.766 13.2565 16.28C13.4777 15.6806 13.83 15.1388 14.2877 14.6938C14.7319 14.2356 15.2736 13.883 15.8723 13.6619C16.3575 13.4731 17.0874 13.2484 18.431 13.1868C19.8842 13.1205 20.3199 13.1066 24 13.1066C27.6797 13.1066 28.1155 13.1209 29.569 13.1872C30.9126 13.2484 31.6421 13.4731 32.1277 13.6619C32.7264 13.883 33.2677 14.2356 33.7123 14.6938ZM16.923 24.4156C16.923 28.328 20.0914 31.4992 24 31.4992C27.9082 31.4992 31.0767 28.328 31.0767 24.4156C31.0767 20.5032 27.9082 17.332 24 17.332C20.0914 17.332 16.923 20.5032 16.923 24.4156ZM29.7026 17.052C29.7026 17.9662 30.4431 18.7074 31.3564 18.7074C32.2698 18.7074 33.0099 17.9662 33.0103 17.052C33.0103 16.1377 32.2698 15.3965 31.3564 15.3965C30.4431 15.3965 29.7026 16.1377 29.7026 17.052Z" fill="#262626"/>
</svg>
