<svg width="61" height="24" viewBox="0 0 61 24" fill="none" xmlns="http://www.w3.org/2000/svg">
<path fill-rule="evenodd" clip-rule="evenodd" d="M2.12775 13.7277C2.13174 13.7502 2.13573 13.7728 2.13997 13.7953L3.16857 13.514C3.33673 14.1298 3.58762 14.539 4.19621 14.3728C4.58233 14.2672 4.70371 13.9583 4.57395 13.4833L4.34431 12.642L2 13.2819C2.00745 13.3025 2.0151 13.323 2.02274 13.3435C2.04626 13.4064 2.06972 13.4693 2.08724 13.5339C2.10467 13.5974 2.11619 13.6624 2.12775 13.7277ZM3.36023 13.4731C3.35911 13.4696 3.35798 13.4662 3.35686 13.4627L4.29981 13.2049L4.35801 13.4171C4.40648 13.5954 4.2636 13.7848 3.98987 13.8598C3.78162 13.9164 3.56474 13.8875 3.44251 13.6818C3.4073 13.6181 3.38335 13.5443 3.36023 13.4731ZM4.92092 14.5348L5.30279 15.186L5.32142 15.2176C5.40605 15.3605 5.52485 15.5612 5.5323 15.7175C5.54275 15.9457 5.45928 16.1181 5.2514 16.2399C4.95202 16.4156 4.64973 16.3347 4.42156 16.0859C4.27185 16.3482 4.13683 16.6191 4.00192 16.8898C3.96166 16.9706 3.9214 17.0513 3.88077 17.1318L3.76109 17.3622C3.74827 17.3367 3.73571 17.3109 3.72311 17.2852C3.68881 17.215 3.65426 17.1443 3.61347 17.0747C3.57457 17.0086 3.53072 16.9452 3.48687 16.8817C3.47006 16.8574 3.45323 16.833 3.43669 16.8085L3.86485 16.0681C3.89746 16.0128 3.94198 15.9322 3.98869 15.8477C4.0217 15.788 4.05581 15.7262 4.08756 15.6701L4.07493 15.6487L3.09395 16.2247L3.06857 16.171C3.03924 16.1086 3.00983 16.0459 2.975 15.9865C2.94246 15.9311 2.90499 15.8784 2.86752 15.8257C2.85336 15.8058 2.83921 15.7859 2.82531 15.7658L4.92092 14.5348ZM4.20813 15.5722C4.36608 15.9109 4.61199 15.9799 4.92655 15.7951C4.96956 15.7698 5.01367 15.7402 5.07041 15.6899C5.27722 15.5081 5.15935 15.3118 5.05384 15.1361C5.04461 15.1208 5.03548 15.1056 5.02667 15.0905L4.20813 15.5722ZM18.2269 16.0193C18.7193 15.4415 19.3267 15.5248 19.7823 15.8852C20.4103 16.3821 20.4334 17.1188 19.9829 17.6889L19.3675 18.4678L17.4754 16.9701L18.2269 16.0193ZM19.5362 17.9224L19.7232 17.6864C20.0262 17.3024 20.0653 16.8587 19.4148 16.3443C18.8924 15.9307 18.4914 16.0153 18.1816 16.4078L17.9665 16.6805L19.5362 17.9224ZM17.1267 17.2358C17.1319 17.2461 17.1371 17.2566 17.1424 17.2673C17.1599 17.3028 17.178 17.3395 17.1999 17.3703C17.2211 17.4008 17.2486 17.4293 17.2754 17.4571C17.2844 17.4665 17.2934 17.4758 17.302 17.485C17.1092 17.5866 16.8959 17.7022 16.6049 17.9166L17.0434 18.5395L17.345 18.3266C17.4747 18.2349 17.5858 18.1396 17.6826 18.0492L17.6953 18.0749C17.7137 18.1124 17.7328 18.1513 17.7561 18.1842C17.7773 18.215 17.8051 18.2436 17.8322 18.2715L17.8469 18.2868L17.858 18.2984C17.7409 18.3595 17.6136 18.4318 17.4837 18.5236L17.1827 18.7365L17.7011 19.472C17.9943 19.2609 18.1809 19.1076 18.3414 18.9596L18.3566 18.9904C18.3742 19.0262 18.3923 19.0629 18.4144 19.0946C18.4352 19.1243 18.4619 19.1518 18.4879 19.1787C18.4977 19.1888 18.5075 19.1988 18.5167 19.2088L17.4136 19.9875L16.0236 18.0142L17.1267 17.2358ZM15.9456 20.7352C15.9693 20.7283 15.993 20.7213 16.0166 20.7141L15.2208 18.684C15.4172 18.6069 15.6165 18.5545 15.8154 18.5021L15.8293 18.4985L15.8231 18.4879L15.812 18.4693C15.7921 18.4357 15.7717 18.4017 15.757 18.3634C15.743 18.3274 15.7347 18.289 15.7266 18.251L15.7194 18.2184L14.0208 18.8854L14.0372 18.9133C14.0573 18.9471 14.0775 18.9811 14.0917 19.0174C14.1065 19.0551 14.1149 19.0933 14.1232 19.1309C14.1258 19.1426 14.1283 19.1543 14.1311 19.1659C14.2934 19.0751 14.4919 18.9707 14.7262 18.8785L15.522 20.9086C15.5413 20.8991 15.5605 20.8895 15.5797 20.8798C15.64 20.8494 15.7002 20.819 15.7628 20.7944C15.8223 20.7712 15.884 20.7532 15.9456 20.7352ZM14.0071 20.9635L13.9589 21.2741C13.7579 21.4042 13.5117 21.4712 13.2752 21.494C12.5207 21.567 11.9046 21.157 11.8345 20.4336C11.7452 19.5122 12.3396 19.0307 13.1074 18.9559C13.3404 18.9338 13.6284 18.9663 13.844 19.0593C13.8314 19.1355 13.8231 19.2115 13.8146 19.2884C13.8095 19.3354 13.8043 19.383 13.798 19.431L13.7486 19.4352C13.5995 19.2577 13.3612 19.1453 13.132 19.1677C12.5467 19.2242 12.3645 19.8081 12.4148 20.3273C12.4733 20.9307 12.8106 21.3255 13.3534 21.2726C13.5724 21.2514 13.8152 21.1136 13.9593 20.9467L14.0071 20.9635ZM11.4597 19.1305L11.4699 19.0994L10.1398 18.8736L9.73627 21.2538L11.0668 21.48C11.0671 21.4684 11.0673 21.4566 11.0675 21.4447C11.0681 21.405 11.0687 21.3644 11.0752 21.3268C11.081 21.2907 11.0935 21.2533 11.1055 21.2171C11.1098 21.2043 11.114 21.1917 11.1178 21.1793C10.9001 21.1713 10.6598 21.1482 10.3028 21.0911L10.4532 20.2036L10.8166 20.2653C10.9735 20.292 11.1142 20.33 11.2403 20.3694L11.2407 20.3551L11.2411 20.3323C11.2417 20.2932 11.2423 20.253 11.2487 20.2161C11.2551 20.1788 11.268 20.1402 11.2805 20.1027C11.2843 20.0912 11.2881 20.0798 11.2917 20.0686C11.1594 20.0642 11.0141 20.0537 10.8567 20.027L10.4934 19.966L10.6207 19.2143C10.9782 19.2674 11.2107 19.3361 11.4194 19.4001C11.4197 19.3886 11.4198 19.3769 11.42 19.3651C11.4205 19.3254 11.421 19.2844 11.4276 19.2469C11.4338 19.2084 11.447 19.1688 11.4597 19.1305ZM8.23573 20.7853C8.21494 20.7743 8.19426 20.7631 8.17358 20.7518C8.11617 20.7205 8.05878 20.6893 7.99929 20.6636C7.94046 20.6377 7.8794 20.6175 7.81841 20.5973C7.79502 20.5896 7.77164 20.5818 7.7484 20.5738L8.61323 18.5727C8.3825 18.4728 8.16769 18.407 7.98872 18.3564C7.99554 18.3452 8.00259 18.3342 8.00966 18.323C8.02971 18.2916 8.04994 18.2598 8.06539 18.2236C8.07997 18.1903 8.08909 18.1547 8.09821 18.119C8.10156 18.106 8.10491 18.0929 8.10852 18.0799L9.78289 18.8048C9.77689 18.8144 9.77074 18.824 9.76459 18.8337C9.74362 18.8665 9.7226 18.8993 9.7072 18.9345C9.69169 18.9701 9.68251 19.0063 9.67349 19.042C9.67016 19.0552 9.66682 19.0683 9.66322 19.0813C9.48133 18.9754 9.29909 18.8703 9.10092 18.7841L8.23573 20.7853ZM5.11157 17.1864C4.58183 17.7924 4.67587 18.487 5.26453 19.0029C5.91747 19.5753 6.70466 19.4827 7.15724 18.9602C7.51627 18.5444 7.76133 17.812 7.00184 17.1467C6.33834 16.5649 5.57581 16.6557 5.11157 17.1864ZM5.41927 18.855C5.0193 18.5046 5.18417 17.9985 5.48719 17.6518C6.00999 17.0542 6.47606 16.9677 6.84663 17.2924C7.24612 17.6429 7.06108 18.1778 6.76025 18.522C6.37267 18.9649 5.82957 19.2144 5.41927 18.855ZM14.2217 15.0613L14.4221 13.9337L14.8885 14.0169L14.7239 14.9422L15.8293 15.1384L15.7941 15.3416L14.2217 15.0613ZM12.4009 14.4578C12.3035 14.3704 12.2655 14.2619 12.2883 14.1349C12.3106 14.0077 12.3833 13.9199 12.5055 13.8707C12.6274 13.8211 12.7813 13.8136 12.9658 13.8465C13.1504 13.8791 13.2913 13.9394 13.3874 14.0275C13.4832 14.1159 13.5204 14.2236 13.4981 14.3505C13.4756 14.4771 13.4039 14.5655 13.2829 14.6155C13.1621 14.6647 13.0091 14.6734 12.8248 14.6404C12.64 14.6076 12.4986 14.5464 12.4009 14.4578ZM13.7087 13.9082C13.5558 13.7905 13.3193 13.7032 13.0009 13.6467C12.6819 13.5896 12.4303 13.59 12.2462 13.6482C12.0019 13.7111 11.8612 13.8463 11.8239 14.0527C11.7886 14.2553 11.8742 14.4306 12.081 14.5785C12.234 14.6963 12.4697 14.7831 12.7886 14.8402C13.1083 14.897 13.3592 14.8963 13.5436 14.8384C13.7879 14.7708 13.9279 14.6356 13.9636 14.4334C14.0004 14.2266 13.9155 14.052 13.7087 13.9082ZM9.92822 13.1359L11.7362 13.4569L11.7005 13.6569L11.033 13.5382L10.8681 14.4659L10.3989 14.3825L10.5634 13.4543L9.89274 13.335L9.92822 13.1359ZM8.3613 13.579L8.72896 13.188L8.92858 13.6808L8.3613 13.579ZM9.04238 12.9765L8.51556 12.8832L7.51915 13.8692L8.00648 13.9556L8.19869 13.7511L9.02428 13.898L9.12706 14.1548L9.63286 14.2452L9.04238 12.9765ZM16.5434 13.3428L15.9233 16.8354L6.55938 15.1857L8.61732 3.49609L10.4606 3.82365C9.07185 6.33783 9.08886 9.0871 11.3029 11.4007C13.5165 13.7133 16.5434 13.3428 16.5434 13.3428ZM12.6701 10.1273C13.9881 12.7523 16.6401 12.7863 16.6401 12.7863L17.9966 5.14795L14.6363 4.54993C14.6363 4.54993 10.8502 6.4995 12.6701 10.1273Z" fill="#262626"/>
<rect x="0.5" y="0.996094" width="22.6914" height="22.0063" rx="11.0031" stroke="#262626"/>
<path d="M28.2877 5.69969L28.2175 5.98577H28.9837L28.9135 5.69969C28.8624 5.50048 28.8113 5.28433 28.7602 5.05122C28.7091 4.81812 28.6581 4.59772 28.607 4.39005H28.5814C28.5389 4.59772 28.492 4.81812 28.441 5.05122C28.3899 5.28433 28.3388 5.50048 28.2877 5.69969ZM26.6914 7.70865L27.9557 3.57629H29.2838L30.5481 7.70865H29.386L29.1816 6.83132H28.0195L27.8152 7.70865H26.6914Z" fill="#262626"/>
<path d="M31.2243 7.70865V4.49177H30.1261V3.57629H33.4208V4.49177H32.3226V7.70865H31.2243Z" fill="#262626"/>
<path d="M35.593 7.78494C35.2098 7.78494 34.8736 7.70017 34.5841 7.53064C34.2946 7.35687 34.069 7.10892 33.9073 6.78681C33.7455 6.4647 33.6646 6.0769 33.6646 5.6234C33.6646 5.1699 33.7455 4.78633 33.9073 4.47269C34.069 4.15482 34.2946 3.91324 34.5841 3.74794C34.8736 3.58265 35.2098 3.5 35.593 3.5C35.9761 3.5 36.3124 3.58265 36.6018 3.74794C36.8913 3.91324 37.1169 4.15482 37.2787 4.47269C37.4404 4.78633 37.5213 5.1699 37.5213 5.6234C37.5213 6.0769 37.4404 6.4647 37.2787 6.78681C37.1169 7.10892 36.8913 7.35687 36.6018 7.53064C36.3124 7.70017 35.9761 7.78494 35.593 7.78494ZM35.593 6.84403C35.8441 6.84403 36.0399 6.73383 36.1804 6.51344C36.3251 6.29305 36.3975 5.99637 36.3975 5.6234C36.3975 5.24619 36.3251 4.95586 36.1804 4.75242C36.0399 4.54474 35.8441 4.44091 35.593 4.44091C35.3461 4.44091 35.1502 4.54474 35.0055 4.75242C34.8608 4.95586 34.7884 5.24619 34.7884 5.6234C34.7884 5.99637 34.8608 6.29305 35.0055 6.51344C35.1502 6.73383 35.3461 6.84403 35.593 6.84403Z" fill="#262626"/>
<path d="M38.2644 7.70865V3.57629H39.3627V6.79317H40.9334V7.70865H38.2644Z" fill="#262626"/>
<path d="M27.215 14.0662V9.93382H28.7347C29.0369 9.93382 29.3157 9.9762 29.5711 10.061C29.8265 10.1457 30.0309 10.2877 30.1841 10.4869C30.3416 10.6861 30.4204 10.9595 30.4204 11.307C30.4204 11.6419 30.3416 11.9174 30.1841 12.1335C30.0309 12.3454 29.8265 12.5022 29.5711 12.604C29.32 12.7057 29.0497 12.7565 28.7602 12.7565H28.3133V14.0662H27.215ZM28.3133 11.8919H28.7091C28.9262 11.8919 29.0859 11.8411 29.188 11.7393C29.2944 11.6334 29.3477 11.4893 29.3477 11.307C29.3477 11.1206 29.2902 10.9892 29.1753 10.9129C29.0603 10.8366 28.8964 10.7984 28.6836 10.7984H28.3133V11.8919Z" fill="#262626"/>
<path d="M31.0998 14.0662V9.93382H32.6705C32.9685 9.93382 33.2431 9.97409 33.4942 10.0546C33.7454 10.1309 33.9476 10.2665 34.1008 10.4615C34.2541 10.6565 34.3307 10.9256 34.3307 11.2689C34.3307 11.5656 34.2689 11.8114 34.1455 12.0064C34.0221 12.2013 33.8603 12.3539 33.6602 12.4641L34.5605 14.0662H33.3346L32.6194 12.6803H32.198V14.0662H31.0998ZM32.198 11.8156H32.5939C33.0366 11.8156 33.258 11.6334 33.258 11.2689C33.258 11.0909 33.2005 10.968 33.0856 10.9002C32.9749 10.8323 32.811 10.7984 32.5939 10.7984H32.198V11.8156Z" fill="#262626"/>
<path d="M36.8712 14.1425C36.4881 14.1425 36.1518 14.0577 35.8624 13.8882C35.5729 13.7144 35.3473 13.4665 35.1855 13.1443C35.0238 12.8222 34.9429 12.4344 34.9429 11.9809C34.9429 11.5274 35.0238 11.1439 35.1855 10.8302C35.3473 10.5124 35.5729 10.2708 35.8624 10.1055C36.1518 9.94018 36.4881 9.85753 36.8712 9.85753C37.2544 9.85753 37.5906 9.94018 37.8801 10.1055C38.1696 10.2708 38.3952 10.5124 38.5569 10.8302C38.7187 11.1439 38.7996 11.5274 38.7996 11.9809C38.7996 12.4344 38.7187 12.8222 38.5569 13.1443C38.3952 13.4665 38.1696 13.7144 37.8801 13.8882C37.5906 14.0577 37.2544 14.1425 36.8712 14.1425ZM36.8712 13.2016C37.1224 13.2016 37.3182 13.0914 37.4587 12.871C37.6034 12.6506 37.6758 12.3539 37.6758 11.9809C37.6758 11.6037 37.6034 11.3134 37.4587 11.11C37.3182 10.9023 37.1224 10.7984 36.8712 10.7984C36.6243 10.7984 36.4285 10.9023 36.2838 11.11C36.1391 11.3134 36.0667 11.6037 36.0667 11.9809C36.0667 12.3539 36.1391 12.6506 36.2838 12.871C36.4285 13.0914 36.6243 13.2016 36.8712 13.2016Z" fill="#262626"/>
<path d="M40.1412 14.0662V10.8493H39.0429V9.93382H42.3377V10.8493H41.2394V14.0662H40.1412Z" fill="#262626"/>
<path d="M42.9536 14.0662V9.93382H45.6354V10.8493H44.0518V11.4978H45.4055V12.4132H44.0518V13.1507H45.6992V14.0662H42.9536Z" fill="#262626"/>
<path d="M48.3022 14.1425C47.9489 14.1425 47.6211 14.0662 47.3189 13.9136C47.0209 13.7568 46.7804 13.5216 46.5974 13.2079C46.4143 12.8943 46.3228 12.5022 46.3228 12.0318C46.3228 11.6842 46.376 11.377 46.4824 11.11C46.5931 10.8387 46.7421 10.6098 46.9294 10.4233C47.121 10.2369 47.3359 10.097 47.5743 10.0038C47.817 9.90627 48.0681 9.85753 48.3278 9.85753C48.6045 9.85753 48.8514 9.91263 49.0685 10.0228C49.2898 10.1288 49.4729 10.2559 49.6176 10.4043L49.0429 11.1036C48.9408 11.0146 48.8343 10.9425 48.7237 10.8874C48.6172 10.8281 48.4938 10.7984 48.3533 10.7984C48.1916 10.7984 48.0404 10.8472 47.9 10.9447C47.7638 11.0379 47.6531 11.1735 47.5679 11.3515C47.4871 11.5295 47.4466 11.7436 47.4466 11.9936C47.4466 12.3793 47.5275 12.6781 47.6893 12.89C47.8553 13.0977 48.0724 13.2016 48.3405 13.2016C48.5023 13.2016 48.6449 13.1655 48.7684 13.0935C48.8961 13.0214 49.0046 12.9388 49.094 12.8455L49.6687 13.5322C49.4941 13.7356 49.2898 13.8882 49.0557 13.9899C48.8216 14.0916 48.5704 14.1425 48.3022 14.1425Z" fill="#262626"/>
<path d="M50.9724 14.0662V10.8493H49.8741V9.93382H53.1689V10.8493H52.0706V14.0662H50.9724Z" fill="#262626"/>
<path d="M53.7847 14.0662V9.93382H56.4665V10.8493H54.883V11.4978H56.2367V12.4132H54.883V13.1507H56.5304V14.0662H53.7847Z" fill="#262626"/>
<path d="M57.3328 14.0662V9.93382H58.5587C58.9802 9.93382 59.3505 10.0038 59.6698 10.1436C59.9933 10.2792 60.2444 10.4975 60.4232 10.7984C60.602 11.0994 60.6914 11.4935 60.6914 11.9809C60.6914 12.4683 60.602 12.8667 60.4232 13.1761C60.2444 13.4813 59.9997 13.7059 59.6889 13.85C59.3782 13.9941 59.0227 14.0662 58.6226 14.0662H57.3328ZM58.431 13.1888H58.4949C58.695 13.1888 58.8759 13.1549 59.0376 13.0871C59.1994 13.0193 59.3271 12.8985 59.4207 12.7248C59.5187 12.551 59.5676 12.303 59.5676 11.9809C59.5676 11.6588 59.5187 11.4151 59.4207 11.2498C59.3271 11.0803 59.1994 10.9659 59.0376 10.9065C58.8759 10.8429 58.695 10.8112 58.4949 10.8112H58.431V13.1888Z" fill="#262626"/>
<path d="M27.1767 20.4237V19.5464H28.0451V17.4611H27.2788V16.7872C27.5087 16.7406 27.7045 16.6876 27.8663 16.6283C28.028 16.5647 28.1855 16.4863 28.3388 16.3931H29.1433V19.5464H29.8712V20.4237H27.1767Z" fill="#262626"/>
<path d="M30.625 20.4237V19.5464H31.4933V17.4611H30.7271V16.7872C30.957 16.7406 31.1528 16.6876 31.3146 16.6283C31.4763 16.5647 31.6338 16.4863 31.7871 16.3931H32.5916V19.5464H33.3195V20.4237H30.625Z" fill="#262626"/>
<path d="M35.363 20.5C35.0906 20.5 34.8437 20.4534 34.6223 20.3601C34.4053 20.2669 34.2329 20.1376 34.1051 19.9723C33.9817 19.807 33.92 19.6142 33.92 19.3938C33.92 19.1565 33.9817 18.9636 34.1051 18.8153C34.2329 18.6669 34.3925 18.5419 34.584 18.4402V18.4148C34.4265 18.2918 34.2967 18.1541 34.1945 18.0015C34.0966 17.8489 34.0477 17.6688 34.0477 17.4611C34.0477 17.2238 34.1051 17.0203 34.2201 16.8508C34.335 16.677 34.4946 16.5457 34.699 16.4566C34.9033 16.3634 35.1374 16.3168 35.4013 16.3168C35.7802 16.3168 36.0846 16.4185 36.3144 16.6219C36.5486 16.8211 36.6656 17.0924 36.6656 17.4357C36.6656 17.6179 36.6145 17.7811 36.5124 17.9252C36.4145 18.0693 36.2931 18.188 36.1484 18.2812V18.3067C36.3485 18.4126 36.5145 18.5504 36.6465 18.7199C36.7784 18.8852 36.8444 19.1014 36.8444 19.3684C36.8444 19.5845 36.7827 19.7774 36.6592 19.9469C36.5358 20.1164 36.3634 20.2521 36.142 20.3538C35.9207 20.4513 35.661 20.5 35.363 20.5ZM35.6057 18.0206C35.6653 17.9358 35.71 17.8532 35.7398 17.7726C35.7696 17.6879 35.7845 17.601 35.7845 17.512C35.7845 17.3721 35.7483 17.264 35.6759 17.1878C35.6035 17.1072 35.5035 17.067 35.3758 17.067C35.2779 17.067 35.1906 17.0988 35.114 17.1623C35.0416 17.2217 35.0055 17.3213 35.0055 17.4611C35.0055 17.5925 35.0565 17.7006 35.1587 17.7854C35.2651 17.8659 35.4141 17.9443 35.6057 18.0206ZM35.3886 19.7498C35.512 19.7498 35.6163 19.718 35.7015 19.6545C35.7866 19.5909 35.8292 19.4828 35.8292 19.3302C35.8292 19.1819 35.761 19.0696 35.6248 18.9933C35.4929 18.9128 35.3077 18.8216 35.0693 18.7199C35.0097 18.7877 34.9586 18.8704 34.9161 18.9678C34.8778 19.0653 34.8586 19.1649 34.8586 19.2667C34.8586 19.4235 34.9118 19.5443 35.0182 19.629C35.1247 19.7096 35.2481 19.7498 35.3886 19.7498Z" fill="#262626"/>
<path d="M38.8241 20.5C38.3771 20.5 38.0132 20.322 37.7322 19.966C37.4555 19.6057 37.3172 19.0802 37.3172 18.3893C37.3172 17.6985 37.4555 17.1814 37.7322 16.8381C38.0132 16.4906 38.3771 16.3168 38.8241 16.3168C39.271 16.3168 39.6329 16.4906 39.9096 16.8381C40.1905 17.1856 40.331 17.7027 40.331 18.3893C40.331 19.0802 40.1905 19.6057 39.9096 19.966C39.6329 20.322 39.271 20.5 38.8241 20.5ZM38.8241 19.6608C38.9092 19.6608 38.988 19.629 39.0603 19.5655C39.1327 19.5019 39.1902 19.379 39.2327 19.1967C39.2753 19.0145 39.2966 18.7453 39.2966 18.3893C39.2966 18.0333 39.2753 17.7684 39.2327 17.5946C39.1902 17.4166 39.1327 17.3001 39.0603 17.245C38.988 17.1856 38.9092 17.156 38.8241 17.156C38.7389 17.156 38.6602 17.1856 38.5878 17.245C38.5155 17.3001 38.458 17.4166 38.4154 17.5946C38.3729 17.7684 38.3516 18.0333 38.3516 18.3893C38.3516 18.7453 38.3729 19.0145 38.4154 19.1967C38.458 19.379 38.5155 19.5019 38.5878 19.5655C38.6602 19.629 38.7389 19.6608 38.8241 19.6608Z" fill="#262626"/>
<path d="M42.3362 18.6436C42.2425 18.6436 42.1489 18.6712 42.0552 18.7263C41.9616 18.7771 41.8828 18.864 41.819 18.9869C41.8488 19.1734 41.8914 19.3175 41.9467 19.4192C42.0063 19.5209 42.0723 19.5909 42.1446 19.629C42.217 19.6672 42.2851 19.6862 42.349 19.6862C42.4639 19.6862 42.5639 19.646 42.6491 19.5655C42.7385 19.4849 42.7832 19.3387 42.7832 19.1268C42.7832 18.9318 42.7363 18.8026 42.6427 18.739C42.5533 18.6754 42.4511 18.6436 42.3362 18.6436ZM42.3745 20.5C42.1787 20.5 41.9871 20.464 41.7998 20.3919C41.6125 20.3156 41.4423 20.197 41.289 20.0359C41.14 19.8748 41.0187 19.6672 40.9251 19.4129C40.8357 19.1543 40.791 18.8428 40.791 18.4783C40.791 17.9909 40.8697 17.5883 41.0272 17.2704C41.1847 16.9483 41.3912 16.7088 41.6466 16.552C41.902 16.3952 42.1744 16.3168 42.4639 16.3168C42.7534 16.3168 43.0024 16.3676 43.211 16.4694C43.4238 16.5711 43.5962 16.6898 43.7282 16.8254L43.1535 17.4738C43.0897 17.4018 43.0003 17.3382 42.8853 17.2831C42.7704 17.2238 42.6555 17.1941 42.5405 17.1941C42.3447 17.1941 42.1766 17.2746 42.0361 17.4357C41.8956 17.5925 41.8147 17.8744 41.7935 18.2812C41.8914 18.1499 42.0148 18.0503 42.1638 17.9824C42.317 17.9146 42.4469 17.8807 42.5533 17.8807C42.7832 17.8807 42.9896 17.9252 43.1727 18.0142C43.36 18.099 43.5068 18.2346 43.6132 18.4211C43.7239 18.6034 43.7793 18.8386 43.7793 19.1268C43.7793 19.415 43.7154 19.6629 43.5877 19.8706C43.46 20.0741 43.2897 20.2309 43.0769 20.3411C42.864 20.447 42.6299 20.5 42.3745 20.5Z" fill="#262626"/>
</svg>
