<svg width="63" height="22" viewBox="0 0 63 22" fill="none" xmlns="http://www.w3.org/2000/svg">
<path d="M22.1288 0H1.22675C0.953195 0 0.731445 0.222887 0.731445 0.497738V21.5023C0.731445 21.7771 0.953195 22 1.22675 22H22.1288C22.4024 22 22.6241 21.7771 22.6241 21.5023V0.497738C22.6241 0.222887 22.4024 0 22.1288 0ZM21.6335 21.0045H1.72206V0.995475H21.6335V21.0045Z" fill="#262626"/>
<path d="M14.2985 7.37574C14.2885 7.36842 14.2782 7.36205 14.2678 7.35563C13.5374 6.83002 12.6432 6.52022 11.6783 6.52022C10.7134 6.52022 9.81921 6.83002 9.08878 7.35563C9.07843 7.36205 9.06808 7.36847 9.05807 7.37574C9.04717 7.3837 9.03707 7.39226 9.02701 7.40092C7.93174 8.21791 7.22052 9.52696 7.22052 10.9999C7.22052 13.4699 9.22028 15.4795 11.6783 15.4795C14.1363 15.4795 16.1361 13.4699 16.1361 10.9999C16.1361 9.52696 15.4249 8.21791 14.3296 7.40092C14.3195 7.39231 14.3094 7.3837 14.2985 7.37574ZM11.6783 12.4931C10.859 12.4931 10.1924 11.8232 10.1924 10.9999C10.1924 10.1765 10.859 9.50665 11.6783 9.50665C12.4976 9.50665 13.1642 10.1765 13.1642 10.9999C13.1642 11.8232 12.4976 12.4931 11.6783 12.4931ZM13.2939 7.91847L12.7034 8.73531C12.3908 8.59181 12.0438 8.51118 11.6783 8.51118C11.3128 8.51118 10.9659 8.59181 10.6533 8.73526L10.0627 7.91842C10.5455 7.66179 11.0951 7.5157 11.6783 7.5157C12.2615 7.5157 12.8111 7.66179 13.2939 7.91847ZM9.26199 8.5046L9.8521 9.32085C9.44847 9.76378 9.20176 10.3534 9.20176 10.9999C9.20176 11.0946 9.20755 11.1879 9.21786 11.2798L8.26226 11.5919C8.22927 11.3993 8.21114 11.2017 8.21114 10.9999C8.21114 10.0223 8.61447 9.13798 9.26199 8.5046ZM8.56866 12.5386L9.52475 12.2264C9.87266 12.8408 10.4728 13.293 11.183 13.4385V14.4479C10.0338 14.2819 9.0652 13.5478 8.56866 12.5386ZM12.1736 14.4479V13.4384C12.8838 13.2929 13.484 12.8407 13.8319 12.2263L14.788 12.5385C14.2914 13.5478 13.3228 14.2819 12.1736 14.4479ZM15.1455 10.9999C15.1455 11.2017 15.1273 11.3993 15.0944 11.5919L14.1388 11.2799C14.1491 11.1879 14.1549 11.0946 14.1549 10.9999C14.1549 10.3534 13.9081 9.76383 13.5045 9.32089L14.0946 8.50465C14.7421 9.13798 15.1455 10.0223 15.1455 10.9999Z" fill="#262626"/>
<path d="M3.20789 17.4207V19.0136C3.20789 19.2884 3.42965 19.5113 3.7032 19.5113H19.6522C19.9257 19.5113 20.1475 19.2884 20.1475 19.0136V7.67068C20.1475 7.39583 19.9257 7.17294 19.6522 7.17294C19.3786 7.17294 19.1569 7.39583 19.1569 7.67068V18.5158H4.19851V17.4207C4.66346 17.2252 4.99101 16.7635 4.99101 16.2262V13.7376C4.99101 13.2002 4.66346 12.7385 4.19851 12.5431V9.45691C4.66346 9.2615 4.99101 8.79975 4.99101 8.26249V5.7738C4.99101 5.23649 4.66346 4.77479 4.19851 4.57938V3.48416H19.1569V5.97285C19.1569 6.2477 19.3786 6.47058 19.6522 6.47058C19.9257 6.47058 20.1475 6.2477 20.1475 5.97285V2.98642C20.1475 2.71157 19.9257 2.48868 19.6522 2.48868H3.7032C3.42965 2.48868 3.20789 2.71157 3.20789 2.98642V4.57933C2.74295 4.77474 2.4154 5.23644 2.4154 5.77375V8.26244C2.4154 8.79975 2.74295 9.26145 3.20789 9.45686V12.5431C2.74295 12.7385 2.4154 13.2002 2.4154 13.7375V16.2262C2.4154 16.7635 2.74295 17.2252 3.20789 17.4207ZM4.00039 13.7376V16.2262C4.00039 16.3909 3.8671 16.5249 3.7032 16.5249C3.53931 16.5249 3.40602 16.3909 3.40602 16.2262V13.7376C3.40602 13.5729 3.53931 13.4389 3.7032 13.4389C3.8671 13.4389 4.00039 13.5729 4.00039 13.7376ZM3.40602 8.26244V5.77375C3.40602 5.60905 3.53931 5.47511 3.7032 5.47511C3.8671 5.47511 4.00039 5.60905 4.00039 5.77375V8.26244C4.00039 8.42714 3.8671 8.56108 3.7032 8.56108C3.53931 8.56108 3.40602 8.42714 3.40602 8.26244Z" fill="#262626"/>
<path d="M29.0623 6.53699C28.718 6.53699 28.3596 6.48538 27.9871 6.38217C27.6146 6.27895 27.2788 6.12189 26.9796 5.91097L27.8093 5.11666C28.0069 5.24231 28.2185 5.34553 28.4443 5.4263C28.6757 5.50259 28.893 5.54074 29.0962 5.54074C29.3163 5.54074 29.4743 5.51381 29.5703 5.45996C29.6719 5.40611 29.7227 5.32982 29.7227 5.23109C29.7227 5.12788 29.655 5.04934 29.5195 4.99549C29.3897 4.94164 29.2091 4.87881 28.9777 4.80701L28.2919 4.57814C27.9984 4.4839 27.7388 4.33581 27.513 4.13387C27.2929 3.93192 27.1828 3.67389 27.1828 3.35975C27.1828 3.10844 27.2703 2.88182 27.4453 2.67988C27.6202 2.47344 27.8601 2.30965 28.1649 2.18848C28.4753 2.06283 28.8309 2 29.2316 2C29.5477 2 29.8666 2.04936 30.1883 2.14809C30.5157 2.24233 30.8064 2.38818 31.0604 2.58564L30.3323 3.31263C30.146 3.20942 29.9654 3.13088 29.7904 3.07703C29.6211 3.02318 29.4348 2.99625 29.2316 2.99625C29.0567 2.99625 28.9156 3.02094 28.8083 3.0703C28.7067 3.11966 28.6559 3.19371 28.6559 3.29244C28.6559 3.39565 28.7293 3.47643 28.8761 3.53477C29.0228 3.58862 29.2204 3.65369 29.4687 3.72998L30.1375 3.93866C30.4818 4.04636 30.7471 4.19669 30.9334 4.38966C31.1196 4.58263 31.2128 4.83169 31.2128 5.13685C31.2128 5.38367 31.1281 5.61478 30.9588 5.83019C30.7951 6.04111 30.5524 6.21164 30.2307 6.34178C29.909 6.47192 29.5195 6.53699 29.0623 6.53699Z" fill="#262626"/>
<path d="M32.0971 6.45621V2.08078H35.6529V3.05011H33.5533V3.73671H35.3482V4.70604H33.5533V5.48689H35.7376V6.45621H32.0971Z" fill="#262626"/>
<path d="M39.189 6.53699C38.7205 6.53699 38.2859 6.45621 37.8852 6.29466C37.4901 6.12862 37.1712 5.87955 36.9285 5.54747C36.6858 5.21539 36.5645 4.80028 36.5645 4.30215C36.5645 3.93417 36.635 3.60881 36.7761 3.32609C36.9229 3.03889 37.1204 2.79655 37.3688 2.5991C37.6228 2.40164 37.9078 2.25355 38.2239 2.15482C38.5456 2.05161 38.8786 2 39.2229 2C39.5898 2 39.9171 2.05834 40.205 2.17502C40.4985 2.28721 40.7412 2.42184 40.9331 2.5789L40.1711 3.31936C40.0356 3.22512 39.8945 3.14883 39.7478 3.09049C39.6067 3.02767 39.443 2.99625 39.2567 2.99625C39.0423 2.99625 38.8419 3.04786 38.6556 3.15108C38.475 3.2498 38.3283 3.39341 38.2154 3.58189C38.1082 3.77037 38.0545 3.99699 38.0545 4.26176C38.0545 4.67014 38.1618 4.98652 38.3763 5.2109C38.5964 5.43079 38.8842 5.54074 39.2398 5.54074C39.4543 5.54074 39.6434 5.50259 39.8071 5.4263C39.9764 5.35001 40.1203 5.26251 40.2388 5.16378L41.0008 5.89077C40.7694 6.10618 40.4985 6.26773 40.188 6.37544C39.8776 6.48314 39.5446 6.53699 39.189 6.53699Z" fill="#262626"/>
<path d="M43.8489 6.53699C43.0813 6.53699 42.5084 6.35749 42.1303 5.99848C41.7521 5.63947 41.563 5.08749 41.563 4.34254V2.08078H43.0192V4.47717C43.0192 4.86759 43.0841 5.14358 43.214 5.30514C43.3494 5.4622 43.5611 5.54074 43.8489 5.54074C44.1368 5.54074 44.3484 5.4622 44.4839 5.30514C44.625 5.14358 44.6956 4.86759 44.6956 4.47717V2.08078H46.101V4.34254C46.101 5.08749 45.9175 5.63947 45.5507 5.99848C45.1894 6.35749 44.6222 6.53699 43.8489 6.53699Z" fill="#262626"/>
<path d="M47.2852 6.45621V2.08078H49.3679C49.763 2.08078 50.127 2.12341 50.4601 2.20867C50.7931 2.28945 51.0612 2.43306 51.2644 2.63949C51.4675 2.84592 51.5691 3.13088 51.5691 3.49438C51.5691 3.80851 51.4873 4.0688 51.3236 4.27523C51.1599 4.48166 50.9455 4.64321 50.6802 4.75989L51.8739 6.45621H50.2484L49.3002 4.98876H48.7414V6.45621H47.2852ZM48.7414 4.07328H49.2663C49.8533 4.07328 50.1468 3.88032 50.1468 3.49438C50.1468 3.3059 50.0706 3.17576 49.9182 3.10396C49.7715 3.03216 49.5542 2.99625 49.2663 2.99625H48.7414V4.07328Z" fill="#262626"/>
<path d="M52.618 6.45621V2.08078H56.1738V3.05011H54.0742V3.73671H55.869V4.70604H54.0742V5.48689H56.2585V6.45621H52.618Z" fill="#262626"/>
<path d="M28.3681 13.1877V9.78161H26.9119V8.81228H31.2805V9.78161H29.8243V13.1877H28.3681Z" fill="#262626"/>
<path d="M32.0971 13.1877V8.81228H34.1798C34.5749 8.81228 34.939 8.85492 35.272 8.94018C35.605 9.02096 35.8731 9.16456 36.0763 9.37099C36.2795 9.57742 36.381 9.86239 36.381 10.2259C36.381 10.54 36.2992 10.8003 36.1355 11.0067C35.9718 11.2132 35.7574 11.3747 35.4921 11.4914L36.6858 13.1877H35.0603L34.1121 11.7203H33.5533V13.1877H32.0971ZM33.5533 10.8048H34.0782C34.6652 10.8048 34.9587 10.6118 34.9587 10.2259C34.9587 10.0374 34.8825 9.90726 34.7301 9.83546C34.5834 9.76366 34.3661 9.72776 34.0782 9.72776H33.5533V10.8048Z" fill="#262626"/>
<path d="M39.6819 13.2685C38.9143 13.2685 38.3414 13.089 37.9633 12.73C37.5851 12.371 37.396 11.819 37.396 11.074V8.81228H38.8522V11.2087C38.8522 11.5991 38.9171 11.8751 39.0469 12.0366C39.1824 12.1937 39.3941 12.2722 39.6819 12.2722C39.9698 12.2722 40.1814 12.1937 40.3169 12.0366C40.458 11.8751 40.5285 11.5991 40.5285 11.2087V8.81228H41.934V11.074C41.934 11.819 41.7505 12.371 41.3836 12.73C41.0224 13.089 40.4552 13.2685 39.6819 13.2685Z" fill="#262626"/>
<path d="M44.7796 13.2685C44.4353 13.2685 44.0769 13.2169 43.7043 13.1137C43.3318 13.0105 42.996 12.8534 42.6968 12.6425L43.5265 11.8482C43.7241 11.9738 43.9357 12.077 44.1615 12.1578C44.3929 12.2341 44.6102 12.2722 44.8134 12.2722C45.0336 12.2722 45.1916 12.2453 45.2875 12.1915C45.3891 12.1376 45.4399 12.0613 45.4399 11.9626C45.4399 11.8594 45.3722 11.7808 45.2367 11.727C45.1069 11.6731 44.9263 11.6103 44.6949 11.5385L44.0091 11.3096C43.7156 11.2154 43.456 11.0673 43.2302 10.8654C43.0101 10.6634 42.9 10.4054 42.9 10.0913C42.9 9.83995 42.9875 9.61332 43.1625 9.41138C43.3375 9.20495 43.5773 9.04115 43.8821 8.91999C44.1926 8.79433 44.5481 8.7315 44.9489 8.7315C45.265 8.7315 45.5839 8.78087 45.9056 8.8796C46.2329 8.97384 46.5236 9.11968 46.7776 9.31714L46.0495 10.0441C45.8632 9.94092 45.6826 9.86239 45.5077 9.80854C45.3383 9.75468 45.1521 9.72776 44.9489 9.72776C44.7739 9.72776 44.6328 9.75244 44.5256 9.8018C44.424 9.85117 44.3732 9.92521 44.3732 10.0239C44.3732 10.1272 44.4466 10.2079 44.5933 10.2663C44.74 10.3201 44.9376 10.3852 45.1859 10.4615L45.8548 10.6702C46.1991 10.7779 46.4644 10.9282 46.6506 11.1212C46.8369 11.3141 46.93 11.5632 46.93 11.8684C46.93 12.1152 46.8453 12.3463 46.676 12.5617C46.5123 12.7726 46.2696 12.9431 45.9479 13.0733C45.6262 13.2034 45.2367 13.2685 44.7796 13.2685Z" fill="#262626"/>
<path d="M48.6988 13.1877V9.78161H47.2426V8.81228H51.6112V9.78161H50.155V13.1877H48.6988Z" fill="#262626"/>
<path d="M28.7406 17.7921L28.6475 18.095H29.6634L29.5703 17.7921C29.5026 17.5812 29.4348 17.3523 29.3671 17.1055C29.2994 16.8587 29.2316 16.6253 29.1639 16.4054H29.1301C29.0736 16.6253 29.0115 16.8587 28.9438 17.1055C28.8761 17.3523 28.8083 17.5812 28.7406 17.7921ZM26.624 19.9192L28.3004 15.5438H30.0613L31.7377 19.9192H30.1968L29.9259 18.9903H28.385L28.1141 19.9192H26.624Z" fill="#262626"/>
<path d="M34.5673 20C34.0988 20 33.6642 19.9192 33.2635 19.7577C32.8684 19.5916 32.5495 19.3426 32.3068 19.0105C32.0641 18.6784 31.9427 18.2633 31.9427 17.7652C31.9427 17.3972 32.0133 17.0718 32.1544 16.7891C32.3011 16.5019 32.4987 16.2596 32.747 16.0621C33.001 15.8647 33.286 15.7166 33.6021 15.6178C33.9238 15.5146 34.2568 15.463 34.6011 15.463C34.968 15.463 35.2954 15.5213 35.5832 15.638C35.8767 15.7502 36.1194 15.8848 36.3113 16.0419L35.5494 16.7824C35.4139 16.6881 35.2728 16.6118 35.126 16.5535C34.9849 16.4907 34.8213 16.4593 34.635 16.4593C34.4205 16.4593 34.2202 16.5109 34.0339 16.6141C33.8533 16.7128 33.7065 16.8564 33.5936 17.0449C33.4864 17.2334 33.4328 17.46 33.4328 17.7248C33.4328 18.1331 33.54 18.4495 33.7545 18.6739C33.9746 18.8938 34.2625 19.0037 34.6181 19.0037C34.8326 19.0037 35.0216 18.9656 35.1853 18.8893C35.3546 18.813 35.4986 18.7255 35.6171 18.6268L36.3791 19.3538C36.1477 19.5692 35.8767 19.7307 35.5663 19.8384C35.2559 19.9461 34.9229 20 34.5673 20Z" fill="#262626"/>
<path d="M39.189 20C38.7205 20 38.2859 19.9192 37.8852 19.7577C37.4901 19.5916 37.1712 19.3426 36.9285 19.0105C36.6858 18.6784 36.5645 18.2633 36.5645 17.7652C36.5645 17.3972 36.635 17.0718 36.7761 16.7891C36.9229 16.5019 37.1204 16.2596 37.3688 16.0621C37.6228 15.8647 37.9078 15.7166 38.2239 15.6178C38.5456 15.5146 38.8786 15.463 39.2229 15.463C39.5898 15.463 39.9171 15.5213 40.205 15.638C40.4985 15.7502 40.7412 15.8848 40.9331 16.0419L40.1711 16.7824C40.0356 16.6881 39.8945 16.6118 39.7478 16.5535C39.6067 16.4907 39.443 16.4593 39.2567 16.4593C39.0423 16.4593 38.8419 16.5109 38.6556 16.6141C38.475 16.7128 38.3283 16.8564 38.2154 17.0449C38.1082 17.2334 38.0545 17.46 38.0545 17.7248C38.0545 18.1331 38.1618 18.4495 38.3763 18.6739C38.5964 18.8938 38.8842 19.0037 39.2398 19.0037C39.4543 19.0037 39.6434 18.9656 39.8071 18.8893C39.9764 18.813 40.1203 18.7255 40.2388 18.6268L41.0008 19.3538C40.7694 19.5692 40.4985 19.7307 40.188 19.8384C39.8776 19.9461 39.5446 20 39.189 20Z" fill="#262626"/>
<path d="M43.743 20C43.2351 20 42.7892 19.9102 42.4054 19.7307C42.0215 19.5468 41.7224 19.2842 41.5079 18.9432C41.2934 18.6021 41.1862 18.1915 41.1862 17.7113C41.1862 17.2311 41.2934 16.825 41.5079 16.4929C41.7224 16.1563 42.0215 15.9006 42.4054 15.7255C42.7892 15.5505 43.2351 15.463 43.743 15.463C44.251 15.463 44.6969 15.5505 45.0807 15.7255C45.4645 15.9006 45.7637 16.1563 45.9781 16.4929C46.1926 16.825 46.2999 17.2311 46.2999 17.7113C46.2999 18.1915 46.1926 18.6021 45.9781 18.9432C45.7637 19.2842 45.4645 19.5468 45.0807 19.7307C44.6969 19.9102 44.251 20 43.743 20ZM43.743 19.0037C44.076 19.0037 44.3357 18.8871 44.5219 18.6537C44.7138 18.4204 44.8098 18.1062 44.8098 17.7113C44.8098 17.3119 44.7138 17.0045 44.5219 16.7891C44.3357 16.5692 44.076 16.4593 43.743 16.4593C43.4157 16.4593 43.156 16.5692 42.9641 16.7891C42.7722 17.0045 42.6763 17.3119 42.6763 17.7113C42.6763 18.1062 42.7722 18.4204 42.9641 18.6537C43.156 18.8871 43.4157 19.0037 43.743 19.0037Z" fill="#262626"/>
<path d="M49.5372 20C48.7696 20 48.1967 19.8205 47.8186 19.4615C47.4404 19.1025 47.2513 18.5505 47.2513 17.8055V15.5438H48.7075V17.9402C48.7075 18.3306 48.7724 18.6066 48.9023 18.7681C49.0377 18.9252 49.2494 19.0037 49.5372 19.0037C49.8251 19.0037 50.0367 18.9252 50.1722 18.7681C50.3133 18.6066 50.3839 18.3306 50.3839 17.9402V15.5438H51.7893V17.8055C51.7893 18.5505 51.6058 19.1025 51.239 19.4615C50.8777 19.8205 50.3105 20 49.5372 20Z" fill="#262626"/>
<path d="M52.9735 19.9192V15.5438H54.4636L55.6827 17.4959L56.2076 18.4787H56.2415C56.2076 18.2409 56.1681 17.9716 56.123 17.6709C56.0778 17.3658 56.0552 17.0786 56.0552 16.8093V15.5438H57.4437V19.9192H55.9536L54.7345 17.9604L54.2096 16.9843H54.1757C54.2096 17.2311 54.2491 17.5049 54.2942 17.8055C54.3394 18.1017 54.362 18.3845 54.362 18.6537V19.9192H52.9735Z" fill="#262626"/>
<path d="M59.7116 19.9192V16.5131H58.2554V15.5438H62.624V16.5131H61.1678V19.9192H59.7116Z" fill="#262626"/>
</svg>
