<svg width="58" height="20" viewBox="0 0 58 20" fill="none" xmlns="http://www.w3.org/2000/svg">
<g clip-path="url(#clip0_2704_5483)">
<path d="M22.0217 0.835828L14.4283 19.2126H9.47414L5.73739 4.54832C5.51053 3.64501 5.31448 3.31409 4.62332 2.93352C3.49685 2.31365 1.63663 1.73208 0.00146484 1.37082L0.112631 0.836747H8.08759C9.10409 0.836747 10.0179 1.52311 10.2487 2.71046L12.2222 13.343L17.0996 0.835215H22.0235L22.0217 0.835828ZM41.4329 13.2127C41.4528 8.36253 34.8209 8.09565 34.8665 5.9287C34.8807 5.2693 35.5009 4.56823 36.8545 4.38929C37.5261 4.30012 39.3763 4.2321 41.4764 5.2117L42.2996 1.31475C41.1719 0.89956 39.721 0.5 37.9157 0.5C33.2833 0.5 30.0233 2.99787 29.9958 6.57462C29.9656 9.22018 32.3218 10.6965 34.0983 11.5756C35.925 12.4758 36.538 13.0543 36.531 13.8596C36.518 15.0923 35.0741 15.6368 33.7247 15.6579C31.3684 15.6947 30.0021 15.0114 28.9125 14.4975L28.063 18.5235C29.1581 19.033 31.1793 19.4776 33.2749 19.5C38.1988 19.5 41.4193 17.0331 41.4344 13.2127M53.6669 19.2126H58.0015L54.2158 0.835828H50.2156C49.7884 0.832093 49.3699 0.958622 49.0144 1.19902C48.6589 1.43941 48.3828 1.78258 48.2219 2.18404L41.1891 19.2126H46.1103L47.0866 16.4677H53.0996L53.6669 19.2126ZM48.4376 12.7013L50.9044 5.80154L52.3241 12.7013H48.4376ZM28.718 0.835828L24.8426 19.2126H20.1561L24.033 0.835828H28.718Z" fill="#1434CB"/>
</g>
<defs>
<clipPath id="clip0_2704_5483">
<rect width="58" height="19" fill="white" transform="translate(0 0.5)"/>
</clipPath>
</defs>
</svg>
