<svg width="48" height="48" viewBox="0 0 48 48" fill="none" xmlns="http://www.w3.org/2000/svg">
<path d="M3.1046 42.9577C2.51817 42.9577 2.38716 43.5547 2.38716 44.0578C2.38716 44.5268 2.5244 45.1066 3.09836 45.1066C3.6536 45.1066 3.82828 44.5182 3.82828 44.0578C3.82828 43.5802 3.65983 42.9577 3.1046 42.9577ZM2.96735 46.9485C2.64294 46.9485 2.31229 46.8888 2.00036 46.7865L2.03155 46.2749C2.28734 46.4113 2.58679 46.488 2.88001 46.488C3.5413 46.488 3.80956 46.0446 3.80956 45.4051V45.0469C3.62864 45.371 3.28552 45.5671 2.92368 45.5671C2.09394 45.5671 1.76953 44.7996 1.76953 44.0407C1.76953 43.2392 2.09394 42.4802 2.94239 42.4802C3.33543 42.4802 3.6536 42.6593 3.83452 43.043V42.5399H4.38351V45.3966C4.38351 46.3857 3.90938 46.9485 2.96735 46.9485Z" fill="white"/>
<path d="M6.22387 42.9493C5.65615 42.9493 5.4378 43.5206 5.4378 44.0493C5.4378 44.595 5.64991 45.1834 6.22387 45.1834C6.79782 45.1834 7.00993 44.6035 7.00993 44.0493C7.00993 43.512 6.8103 42.9493 6.22387 42.9493ZM6.22387 45.6438C5.31303 45.6438 4.82642 44.9702 4.82642 44.0578C4.82642 43.1369 5.37541 42.4973 6.22387 42.4973C7.12847 42.4973 7.62756 43.1198 7.62756 44.0578C7.62756 44.9702 7.12223 45.6438 6.22387 45.6438Z" fill="white"/>
<path d="M9.46803 45.5758H8.76306L7.82727 42.5571H8.43865L9.13114 45.0812L9.82363 42.5571H10.4038L9.46803 45.5758Z" fill="white"/>
<path d="M10.4287 44.9534H11.0401V45.5759H10.4287V44.9534Z" fill="white"/>
<path d="M13.3984 45.5758L13.3796 45.0641C13.1862 45.4479 12.8743 45.644 12.4626 45.644C11.7514 45.644 11.5081 45.1579 11.5081 44.4587V42.5486H12.0758V44.3308C12.0758 44.7571 12.1506 45.1665 12.6372 45.1665C13.1675 45.1665 13.3235 44.6804 13.3235 44.2029V42.5571H13.8912V44.8851C13.8912 45.1153 13.8975 45.354 13.9224 45.5843H13.3984V45.5758Z" fill="white"/>
<path d="M16.2369 45.5757L14.9954 44.0152V45.5757H14.4277V41.2183H14.9954V43.802L16.1309 42.557H16.8234L15.5756 43.8958L16.9544 45.5757H16.2369Z" fill="white"/>
<path d="M17.4284 45.5757H16.9355L18.4266 41.5508H18.9194L17.4284 45.5757Z" fill="white"/>
<path d="M20.3606 45.644C19.7493 45.644 19.637 45.2005 19.637 44.6122V42.992H19.1129V42.5571H19.637V41.9005L20.2109 41.7043V42.5571H20.8473V42.992H20.2109V44.6804C20.2109 44.9447 20.2733 45.1664 20.5665 45.1664C20.6726 45.1664 20.7786 45.1408 20.8784 45.0897L20.9034 45.5331C20.735 45.6098 20.5353 45.644 20.3606 45.644Z" fill="white"/>
<path d="M22.9621 43.0942C22.8872 43.0686 22.8061 43.0601 22.7312 43.0601C22.1698 43.0601 22.02 43.6741 22.02 44.1431V45.5842H21.4523V43.2562C21.4523 43.026 21.4523 42.7872 21.4274 42.557H21.9639L21.9826 43.1369C22.1074 42.8214 22.3944 42.4973 22.7624 42.4973C22.8435 42.4973 22.9184 42.4973 22.9995 42.5229L22.9621 43.0942Z" fill="white"/>
<path d="M24.9772 44.0919H24.8836C24.422 44.0919 23.717 44.1345 23.717 44.74C23.717 45.064 23.9666 45.2175 24.2473 45.2175C24.7963 45.2175 24.9772 44.7655 24.9772 44.2539V44.0919ZM25.0084 45.5756L24.9897 45.0981C24.8212 45.4307 24.4532 45.6438 24.0976 45.6438C23.586 45.6438 23.1493 45.371 23.1493 44.7826C23.1493 43.9981 23.8605 43.7252 24.6965 43.7252C24.7713 43.7252 24.8899 43.7252 24.9772 43.7338V43.6059C24.9772 43.1624 24.7713 42.9237 24.3222 42.9237C24.0352 42.9237 23.742 43.0004 23.4862 43.1624L23.4487 42.6934C23.7108 42.5741 24.0851 42.4973 24.3721 42.4973C25.1082 42.4973 25.5262 42.8384 25.5262 43.6485V44.9105C25.5262 45.1749 25.5387 45.3795 25.5636 45.5842L25.0084 45.5756Z" fill="white"/>
<path d="M27.5226 45.5758H26.8114L25.8818 42.5571H26.4932L27.1857 45.0812L27.8782 42.5571H28.4584L27.5226 45.5758Z" fill="white"/>
<path d="M29.8994 42.9152C29.4128 42.9152 29.182 43.4609 29.182 43.8446H30.5358C30.5358 43.4183 30.386 42.9152 29.8994 42.9152ZM29.1882 44.2284C29.1882 44.7826 29.5189 45.2261 30.0741 45.2261C30.3299 45.2261 30.673 45.1493 30.9039 45.0129L30.935 45.4904C30.6543 45.6013 30.2925 45.6524 29.9868 45.6524C29.051 45.6524 28.608 45.0043 28.608 44.0663C28.608 43.2307 29.1009 42.5059 29.8994 42.5059C30.7479 42.5059 31.091 43.2051 31.091 44.0578V44.2369L29.1882 44.2284Z" fill="white"/>
<path d="M31.6899 41.2183H32.2577V45.5757H31.6899V41.2183Z" fill="white"/>
<path d="M34.6907 44.0919H34.5971C34.1355 44.0919 33.4305 44.1345 33.4305 44.74C33.4305 45.064 33.6801 45.2175 33.9608 45.2175C34.5098 45.2175 34.6907 44.7655 34.6907 44.2539V44.0919ZM34.7219 45.5756L34.7032 45.0981C34.5348 45.4307 34.1667 45.6438 33.8048 45.6438C33.2933 45.6438 32.8566 45.371 32.8566 44.7826C32.8566 43.9981 33.5678 43.7252 34.4038 43.7252C34.4786 43.7252 34.5971 43.7252 34.6845 43.7338V43.6059C34.6845 43.1624 34.4786 42.9237 34.0357 42.9237C33.7487 42.9237 33.4555 43.0004 33.1997 43.1624L33.1623 42.6934C33.4243 42.5741 33.7986 42.4973 34.0856 42.4973C34.8217 42.4973 35.2397 42.8384 35.2397 43.6485V44.9105C35.2397 45.1749 35.2522 45.3795 35.2772 45.5842L34.7219 45.5756Z" fill="white"/>
<path d="M39.2262 45.5758H38.5212L37.8599 43.0602L37.1862 45.5758H36.4812L35.614 42.5571H36.2129L36.868 45.0641L37.5355 42.5571H38.2155L38.8831 45.0641L39.5319 42.5571H40.0746L39.2262 45.5758Z" fill="white"/>
<path d="M42.1022 44.0919H42.0086C41.547 44.0919 40.8358 44.1345 40.8358 44.74C40.8358 45.064 41.0916 45.2175 41.3661 45.2175C41.915 45.2175 42.096 44.7655 42.096 44.2539L42.1022 44.0919ZM42.1396 45.5756L42.1209 45.0981C41.9525 45.4307 41.5844 45.6438 41.2226 45.6438C40.711 45.6438 40.2743 45.371 40.2743 44.7826C40.2743 43.9981 40.9793 43.7252 41.8215 43.7252C41.8963 43.7252 42.0149 43.7252 42.1022 43.7338V43.6059C42.1022 43.1624 41.8963 42.9237 41.4472 42.9237C41.1602 42.9237 40.867 43.0004 40.6112 43.1624L40.58 42.6934C40.842 42.5741 41.2163 42.4973 41.5033 42.4973C42.2395 42.4973 42.6574 42.8384 42.6574 43.6485V44.9105C42.6574 45.1749 42.6699 45.3795 42.6949 45.5842L42.1396 45.5756Z" fill="white"/>
<path d="M44.8534 43.0942C44.7786 43.0686 44.7037 43.0601 44.6226 43.0601C44.0611 43.0601 43.9114 43.6741 43.9114 44.1431V45.5842H43.3437V43.2562C43.3437 43.026 43.3374 42.7872 43.3187 42.557H43.8552L43.874 43.1369C43.9987 42.8214 44.2857 42.4973 44.6475 42.4973C44.7287 42.4973 44.8098 42.4973 44.8909 42.5229L44.8534 43.0942Z" fill="white"/>
<path d="M46.463 42.9152C45.9764 42.9152 45.7518 43.4609 45.7518 43.8446H47.1056C47.0994 43.4183 46.9434 42.9152 46.463 42.9152ZM45.7581 44.2284C45.7581 44.7826 46.0887 45.2261 46.6439 45.2261C46.8997 45.2261 47.2429 45.1493 47.4674 45.0129L47.5049 45.4904C47.2179 45.6013 46.8561 45.6524 46.5504 45.6524C45.6146 45.6524 45.1716 45.0043 45.1716 44.0663C45.1716 43.2307 45.6707 42.5059 46.463 42.5059C47.3115 42.5059 47.6546 43.2051 47.6546 44.0578V44.2369L45.7581 44.2284Z" fill="white"/>
<path d="M7.99171 32.2842H7.70473C5.87058 32.2842 3.05696 32.4377 3.05696 34.8424C3.05696 36.113 4.03018 36.7014 5.14066 36.7014C7.33042 36.7014 7.98547 34.9788 7.98547 32.9408V32.2842H7.99171ZM8.1352 37.7587L8.07281 36.0106C7.49262 37.2812 6.15132 38.006 4.8724 38.006C3.032 38.006 1.50354 37.0169 1.50354 34.9192C1.50354 32.1137 4.02395 31.133 7.18069 31.133H7.98547V30.6129C7.98547 28.9501 7.36785 27.9183 5.67718 27.9183C4.62285 27.9183 3.63715 28.157 2.72631 28.7966L2.60154 27.3725C3.46871 26.9547 4.7913 26.6477 5.73957 26.6477C8.2974 26.6477 9.4765 28.0035 9.4765 30.7237V35.4478C9.4765 36.2579 9.49522 37.0254 9.60128 37.7673L8.1352 37.7587Z" fill="white"/>
<path d="M22.1783 37.7587H20.3442L17.7239 28.3701L15.0601 37.7587H13.2446L9.98181 26.8523H11.5851L14.2054 36.2664L16.8693 26.8523H18.666L21.3299 36.2664L23.9314 26.8523H25.3725L22.1783 37.7587Z" fill="white"/>
<path d="M31.3991 32.2842H31.1121C29.2779 32.2842 26.4705 32.4377 26.4705 34.8424C26.4705 36.113 27.4438 36.7014 28.5542 36.7014C30.744 36.7014 31.3991 34.9788 31.3991 32.9408V32.2842ZM31.5425 37.7587L31.4802 36.0106C30.9062 37.2812 29.5649 38.006 28.286 38.006C26.4456 38.006 24.9171 37.0169 24.9171 34.9192C24.9171 32.1137 27.4375 31.133 30.5943 31.133H31.3991V30.6129C31.3991 28.9501 30.7814 27.9183 29.0908 27.9183C28.0364 27.9183 27.0445 28.157 26.1399 28.7966L26.0151 27.3725C26.8823 26.9547 28.2049 26.6477 29.1531 26.6477C31.711 26.6477 32.8963 28.0035 32.8963 30.7237V35.4478C32.8963 36.2579 32.915 37.0254 33.0211 37.7673L31.5425 37.7587Z" fill="white"/>
<path d="M39.4718 28.3276C39.2036 28.2423 38.9166 28.1911 38.6421 28.1911C36.5397 28.1911 36.103 30.647 36.103 32.3524V37.7587H34.6057V29.4191C34.6057 28.5663 34.5807 27.7136 34.4996 26.8609H35.8846L35.9657 28.9159C36.3775 27.7989 37.4068 26.6392 38.692 26.6392C38.979 26.6392 39.2659 26.6392 39.5592 26.733L39.4718 28.3276Z" fill="white"/>
<path d="M43.9511 27.9097C42.0732 27.9097 41.125 30.0757 41.125 31.5679H46.4715C46.4715 29.8795 45.8289 27.9097 43.9511 27.9097ZM41.125 32.7447C41.125 34.868 42.2604 36.7099 44.4252 36.7099C45.3173 36.7099 46.5713 36.42 47.3386 35.9424L47.4634 37.4347C46.5151 37.827 45.3173 38.006 44.2817 38.006C40.9628 38.006 39.5591 35.5331 39.5591 32.2757C39.5591 29.4702 41.1686 26.6477 43.9324 26.6477C46.8396 26.6477 47.9999 29.1888 47.9999 32.0966V32.7532L41.125 32.7447Z" fill="white"/>
<path d="M5.13439 23.0238C2.6327 23.0238 2.30829 21.0966 2.30829 18.726V11.2476H0V9.76386H2.30829V6.84754L4.08006 6.19946V9.76386H6.85625V11.2476H4.08006V19.2206C4.08006 20.3633 4.37328 21.3865 5.6522 21.3865C6.14505 21.3865 6.58175 21.2586 7.02469 21.0454L7.12451 22.6315C6.51313 22.8959 5.77697 23.0238 5.13439 23.0238Z" fill="white"/>
<path d="M14.4237 11.5117C14.1056 11.4094 13.7625 11.3582 13.438 11.3582C10.9364 11.3582 10.4186 14.2746 10.4186 16.304V22.7421H8.62807V12.8164C8.62807 11.8016 8.60311 10.7784 8.5033 9.77216H10.1503L10.2501 12.2195C10.7367 10.8892 11.9657 9.50781 13.4942 9.50781C13.8373 9.50781 14.1804 9.50781 14.5236 9.61014L14.4237 11.5117Z" fill="white"/>
<path d="M21.9973 16.2273H21.6542C19.4707 16.2273 16.1268 16.4064 16.1268 19.2715C16.1268 20.7809 17.2809 21.4886 18.6098 21.4886C21.2113 21.4886 22.0036 19.4336 22.0036 17.0118V16.2273H21.9973ZM22.1658 22.7421L22.0909 20.653C21.4047 22.1623 19.8013 23.0235 18.2791 23.0235C16.0956 23.0235 14.2739 21.8468 14.2739 19.3483C14.2739 16.0141 17.2747 14.8459 21.0304 14.8459H21.9911V14.2234C21.9911 12.2451 21.255 11.0171 19.2336 11.0171C17.9797 11.0171 16.8006 11.3071 15.7213 12.066L15.5778 10.3691C16.6072 9.87449 18.1793 9.50781 19.3085 9.50781C22.3592 9.50781 23.7566 11.1195 23.7566 14.3513V19.9793C23.7566 20.9429 23.7816 21.8553 23.9064 22.7421H22.1658Z" fill="white"/>
<path d="M39.8149 11.0171C37.5752 11.0171 36.4461 13.5924 36.4461 15.3746H42.8095C42.8095 13.3621 42.0483 11.0171 39.8149 11.0171ZM36.4461 16.773C36.4461 19.3056 37.7998 21.4886 40.3764 21.4886C41.437 21.4886 42.9342 21.1475 43.8388 20.5762L43.9886 22.3499C42.8531 22.8189 41.4307 23.0321 40.2017 23.0321C36.2464 23.0321 34.5745 20.0902 34.5745 16.2103C34.5745 12.8761 36.4897 9.50781 39.7837 9.50781C43.2524 9.50781 44.6249 12.5265 44.6249 15.9971V16.773H36.4461Z" fill="white"/>
<path d="M46.2032 3.948H47.9937V22.7336H46.2032V3.948Z" fill="white"/>
<path d="M24.0999 10.7529C24.0999 10.7529 25.3226 8.92805 27.1131 10.1816C28.9722 11.4862 29.9392 15.6646 29.9392 15.6646C29.9392 15.6646 33.227 4.23805 40.4326 0.332564C40.4326 0.332564 41.0876 0 41.4869 0C41.7489 0 41.3621 0.332564 41.3621 0.332564C41.3621 0.332564 35.8097 4.73263 32.7653 13.8739C32.2662 15.3661 31.4427 18.4189 31.1058 19.7321C30.719 21.2244 30.4258 22.5887 29.6086 22.512C28.7788 22.4352 28.9722 21.0197 27.8368 17.0375C27.5935 16.1848 26.2272 10.9575 24.0999 10.7529Z" fill="#00759E"/>
</svg>
