<svg width="45" height="36" viewBox="0 0 45 36" fill="none" xmlns="http://www.w3.org/2000/svg">
<g clip-path="url(#clip0_2704_5683)">
<path d="M8.15591 35.4232V33.1004C8.15591 32.2118 7.61547 31.63 6.68773 31.63C6.22386 31.63 5.71946 31.7834 5.37268 32.2885C5.10246 31.8645 4.71515 31.63 4.13419 31.63C3.74688 31.63 3.35957 31.7473 3.05332 32.1713V31.7067H2.24268V35.4232H3.05332V33.371C3.05332 32.7125 3.4001 32.4013 3.94053 32.4013C4.48097 32.4013 4.75118 32.7486 4.75118 33.371V35.4232H5.56183V33.371C5.56183 32.7125 5.94914 32.4013 6.44904 32.4013C6.98947 32.4013 7.25969 32.7486 7.25969 33.371V35.4232H8.15591ZM20.1805 31.7067H18.8655V30.5836H18.0548V31.7067H17.3207V32.4419H18.0548V34.1468C18.0548 34.9992 18.4016 35.4999 19.3293 35.4999C19.681 35.4921 20.0256 35.3993 20.3336 35.2292L20.0995 34.5301C19.8899 34.6599 19.6478 34.7272 19.4014 34.7241C19.0141 34.7241 18.861 34.4895 18.861 34.1062V32.4419H20.176V31.7067H20.1805ZM27.062 31.6255C26.5982 31.6255 26.2874 31.86 26.0938 32.1667V31.7022H25.2831V35.4187H26.0938V33.3259C26.0938 32.708 26.364 32.3562 26.8684 32.3562C27.0387 32.3644 27.2077 32.3901 27.3728 32.4328L27.607 31.6571C27.4265 31.6311 27.2442 31.6205 27.062 31.6255ZM16.6632 32.0134C16.2759 31.7428 15.7355 31.6255 15.1545 31.6255C14.2268 31.6255 13.6098 32.0901 13.6098 32.8252C13.6098 33.4432 14.0736 33.795 14.8843 33.9077L15.2716 33.9483C15.6949 34.025 15.9291 34.1423 15.9291 34.3362C15.9291 34.6068 15.6184 34.8008 15.0779 34.8008C14.6349 34.8032 14.2022 34.6676 13.8395 34.4129L13.4521 35.0308C13.8755 35.342 14.4564 35.4954 15.0374 35.4954C16.1183 35.4954 16.7398 34.9902 16.7398 34.2956C16.7398 33.6371 16.2354 33.2898 15.4653 33.1725L15.0779 33.1319C14.7312 33.0914 14.4609 33.0147 14.4609 32.7847C14.4609 32.514 14.7312 32.3607 15.159 32.3607C15.6229 32.3607 16.0868 32.5546 16.3209 32.6719L16.6632 32.0134ZM38.231 31.6255C37.7671 31.6255 37.4563 31.86 37.2627 32.1667V31.7022H36.452V35.4187H37.2627V33.3259C37.2627 32.708 37.5329 32.3562 38.0373 32.3562C38.2076 32.3644 38.3766 32.3901 38.5417 32.4328L38.7759 31.6661C38.6183 31.6255 38.3886 31.6255 38.231 31.6255ZM27.8727 33.5649C27.8727 34.688 28.6473 35.4999 29.8453 35.4999C30.3857 35.4999 30.773 35.3826 31.1603 35.0759L30.773 34.4174C30.4622 34.6519 30.156 34.7647 29.8047 34.7647C29.1472 34.7647 28.6833 34.3001 28.6833 33.5649C28.6833 32.8658 29.1472 32.4013 29.8047 32.3652C30.1515 32.3652 30.4622 32.4825 30.773 32.7125L31.1603 32.054C30.773 31.7428 30.3857 31.63 29.8453 31.63C28.6473 31.6255 27.8727 32.4419 27.8727 33.5649ZM35.3712 33.5649V31.7067H34.5605V32.1713C34.2903 31.824 33.903 31.63 33.3986 31.63C32.3538 31.63 31.5431 32.4419 31.5431 33.5649C31.5431 34.688 32.3538 35.4999 33.3986 35.4999C33.939 35.4999 34.3263 35.3059 34.5605 34.9586V35.4232H35.3712V33.5649ZM32.3943 33.5649C32.3943 32.9064 32.8176 32.3652 33.5157 32.3652C34.1732 32.3652 34.6371 32.8703 34.6371 33.5649C34.6371 34.2234 34.1732 34.7647 33.5157 34.7647C32.8221 34.7241 32.3943 34.2189 32.3943 33.5649ZM22.6935 31.6255C21.6127 31.6255 20.8381 32.4013 20.8381 33.5604C20.8381 34.7196 21.6127 35.4954 22.7341 35.4954C23.2745 35.4954 23.8149 35.342 24.2428 34.9902L23.8555 34.4084C23.5447 34.6429 23.1574 34.7963 22.7746 34.7963C22.2702 34.7963 21.7703 34.5617 21.6532 33.9077H24.3959V33.5965C24.4319 32.4013 23.7339 31.6255 22.6935 31.6255ZM22.6935 32.3246C23.1979 32.3246 23.5447 32.6358 23.6213 33.2131H21.6892C21.7658 32.7125 22.1126 32.3246 22.6935 32.3246ZM42.8336 33.5649V30.2363H42.023V32.1713C41.7528 31.824 41.3655 31.63 40.8611 31.63C39.8162 31.63 39.0056 32.4419 39.0056 33.5649C39.0056 34.688 39.8162 35.4999 40.8611 35.4999C41.4015 35.4999 41.7888 35.3059 42.023 34.9586V35.4232H42.8336V33.5649ZM39.8568 33.5649C39.8568 32.9064 40.2801 32.3652 40.9782 32.3652C41.6357 32.3652 42.0996 32.8703 42.0996 33.5649C42.0996 34.2234 41.6357 34.7647 40.9782 34.7647C40.2801 34.7241 39.8568 34.2189 39.8568 33.5649ZM12.7181 33.5649V31.7067H11.9074V32.1713C11.6372 31.824 11.2499 31.63 10.7455 31.63C9.70064 31.63 8.88999 32.4419 8.88999 33.5649C8.88999 34.688 9.70064 35.4999 10.7455 35.4999C11.2859 35.4999 11.6732 35.3059 11.9074 34.9586V35.4232H12.7181V33.5649ZM9.70514 33.5649C9.70514 32.9064 10.1285 32.3652 10.8265 32.3652C11.4841 32.3652 11.9479 32.8703 11.9479 33.5649C11.9479 34.2234 11.4841 34.7647 10.8265 34.7647C10.1285 34.7241 9.70514 34.2189 9.70514 33.5649Z" fill="black"/>
<path d="M28.5708 3.48145H16.3931V25.3925H28.5708V3.48145Z" fill="#FF5A00"/>
<path d="M17.2038 14.4369C17.2038 9.98518 19.2934 6.03415 22.5 3.48132C20.0552 1.5486 17.0309 0.498212 13.9161 0.500002C6.22398 0.500002 0 6.73325 0 14.4369C0 22.1405 6.22398 28.3737 13.9161 28.3737C17.0309 28.3755 20.0552 27.3251 22.5 25.3924C19.2889 22.8756 17.2038 18.8885 17.2038 14.4369Z" fill="#EB001B"/>
<path d="M45 14.4369C45 22.1405 38.776 28.3737 31.0839 28.3737C27.9691 28.3755 24.9448 27.3251 22.5 25.3924C25.7471 22.8351 27.7962 18.8885 27.7962 14.4369C27.7962 9.98518 25.7066 6.03415 22.5 3.48132C24.9428 1.54799 27.9659 0.497465 31.0794 0.500005C38.776 0.500005 45 6.77384 45 14.4369Z" fill="#F79E1B"/>
</g>
<defs>
<clipPath id="clip0_2704_5683">
<rect width="45" height="35" fill="white" transform="translate(0 0.5)"/>
</clipPath>
</defs>
</svg>
